<?xml version="1.0" encoding="utf-8"?>
<!-- Generator: Adobe Illustrator 23.0.3, SVG Export Plug-In . SVG Version: 6.00 Build 0)  -->
<svg version="1.1" id="Layer_1" xmlns="http://www.w3.org/2000/svg" xmlns:xlink="http://www.w3.org/1999/xlink" x="0px" y="0px"
	 viewBox="0 0 2500 1750" style="enable-background:new 0 0 2500 1750;" xml:space="preserve">
<style type="text/css">
	.st0{fill:#FFFFFF;}
	.st1{fill:#999999;}
	.st2{fill:#4C4C4C;}
	.st3{fill:#F50537;}
</style>
<rect class="st0" width="2500" height="1750"/>
<g>
	<path class="st1" d="M1080.5,945.9c-0.1,0-0.3,0-0.4-0.1c2.8,0.4,5.5,0.9,8.1,1.7C1086,946.9,1083.4,946.3,1080.5,945.9z"/>
	<path class="st2" d="M1877.3,707.4c-12.6-6.1-25.9-8.3-39.8-8.2c-45.4,0.1-90.9,0-136.3,0c-37.7,0-75.4,0-113.1,0
		c-11.7,0-20.8,6.2-24.2,16.5c-1.1,3.2-1.6,6.5-2.2,9.8c-13.1,71.9-26.3,143.9-39.4,215.9c-1,5.6-2,11.2-3.1,16.8c0,0.1,0,0.1,0,0.2
		c-19,7.5-32.4,26-32.4,47.7c0,6.8,1.3,13.3,3.7,19.2c-1.5-4.7-2.3-9.7-2.3-14.8c0-20.3,12.2-37.8,29.7-45.6c4.5-2,9.4-3.3,14.5-3.9
		c1.8-0.2,3.6-0.3,5.5-0.3c17.2,0,32.4,8.8,41.3,22.1c5.3,7.9,8.4,17.4,8.4,27.6c0,5.1-0.8,10.1-2.2,14.8c0,0,0,0,0,0c0,0,0,0,0,0
		c-3.7,11.9-11.8,21.9-22.4,28.1h10.1c0,0,0,0,0,0c12.4-10.2,20.4-25.7,20.4-43c0-8.8-2.1-17.2-5.8-24.6
		c40.5,14.5,137.3,49.2,138.8,51c1.8,2.2,0,12.8,0,12.8h-23.6l9.3,3.9c25.1,0,50.2,0,75.3-0.1c51.8-0.2,96.7-37.4,106.6-88.1
		c2-10.3,3.3-20.7,5.7-31c5.1-22.2,1.6-42.5-12.2-60.7c-2.5-3.3-1.9-5.1,0.8-7.9c11.6-11.8,19.7-25.8,23.1-42.2
		c2.6-12.6,4.9-25.3,6.8-38C1922.9,752.9,1906.4,721.5,1877.3,707.4z M1792.6,935.6c-0.4,2.5-0.9,5-1.5,7.6
		c-2.5,11.3-10.8,18.1-22.5,18.2c-22.4,0.1-44.8,0-67.2,0c-22.4,0-44.8,0-67.2,0c-7.5,0-8.4-1.1-7.1-8.3c1.9-10.1,4-20.2,5.8-30.3
		c0.8-4.5,3.1-6.4,7.7-6.4c45.4,0.1,90.8,0,136.2,0.1C1788.6,916.5,1794.5,924,1792.6,935.6z M1805.3,870.1
		c-0.3,2.5-0.7,5.1-1.2,7.6c-2.1,11.8-10.2,19.2-21.6,19.2c-10.3,0.1-25.2,0.1-39.9,0.1c-3.5,0-7,0-10.5,0c-4.1,0-8,0-11.7,0
		c-3.3,0-6.6,0-9.8,0c-0.8,0-1.6,0-2.4,0c-10.3,0-20.6,0-30.9,0c-6.1,0-12.3,0-18.4,0c-4,0-8.1,0-12.1,0c-6.8,0-7.7-1-6.5-7.9
		c1.8-10.1,3.8-20.2,5.4-30.3c0.7-4.7,2.8-6.8,7.4-6.8c0.2,0,0.3,0,0.5,0c9.3,0,19.4,0,30.1,0c1.1,0,2.1,0,3.2,0c9.5,0,19,0,28.5,0
		c26.4,0,53.3,0,75.2,0.1C1801.4,852,1806.7,858.9,1805.3,870.1z M1818.1,805.7c-0.4,2.5-0.8,5.1-1.3,7.6
		c-2.2,11.8-11,19.2-23.4,19.2c-11.3,0.1-24.8,0.1-38.1,0.1c-11.5,0-23,0-34.5,0c-10.4,0-20.9,0-31.3,0c-10.7,0-21.3,0-32,0
		c-7.4,0-8.3-1-7-7.9c1.9-10.1,4.1-20.2,5.8-30.3c0.8-4.7,3-6.8,8-6.8c0,0,0,0,0,0c0.2,0,0.5,0,0.7,0c9.6,0,19.1,0,28.7,0
		c2.2,0,4.4,0,6.5,0c8.7,0,17.4,0,26.1,0c25.8,0,51.9,0,75.7,0.1C1813.8,787.7,1819.7,794.6,1818.1,805.7z"/>
	<path class="st2" d="M1496.3,948.7c9.3-52,18.9-104,28.4-156.1c5.4-29.5-0.6-55.7-23.9-76c-15.7-13.7-34.6-18.5-55.1-18.5
		c-77.6,0.1-155.2,0-232.8,0.1c-15.8,0-25.1,7.9-27.9,23.5c-15,82.7-30,165.4-45,248.1l90.3-33.7v0l25.5-9.5l53.3-19.9l-51.5,9.3
		c6.7-37.4,13.4-74.9,20.1-112.3c1.6-9,7.1-13.8,16.5-13.8c36.5-0.1,73-0.1,109.5,0c9.4,0,12.8,4.4,11.2,13.6
		c-6.9,38.6-13.8,77.2-20.7,115.8c-31.4-7.7-40,16.1-40.3,16.8c3.3-4.9,9-10.2,18.2-11.2c8-0.9,14.9,0.8,20.4,3.8
		c4.4,2.5,7.9,5.8,10.4,9.4c1.3,1.9,2.3,3.9,3,5.8c3.6,10.1,2.2,16.4,2.2,16.4h39.2v-6.2h-17.1v-13.2h34.9v14.8l-4.6,4.6h14
		l11.2-11.2h10.4L1496.3,948.7z"/>
	<polygon class="st2" points="1189.7,1052.8 1195.2,1052.8 1195.2,1005.1 1317.7,1005.1 1189.7,997.3 	"/>
	<path class="st3" d="M957.2,699.7c-48.8,0-97.6,0-146.4,0c-48.2,0-96.4,0-144.6,0c-16.9,0-25.3,6.9-28.3,23.4
		c-3.8,20.4-7.4,40.9-11.1,61.3c-15.1,82.5-30.1,165.1-45.2,247.6c-2.3,12.8,4.2,20.8,17.3,20.8c21.4,0.1,42.9,0.1,64.3,0
		c13.9,0,23.2-7.9,25.7-21.5c6.3-34.6,12.7-69.3,19-104c1.6-8.5,2-8.9,10.8-8.9c53,0,105.9,0,158.9,0c10.8,0,15.5-4,17.5-14.6
		c1.9-10.1,3.8-20.2,5.6-30.3c1.6-8.8,3.3-17.5,4.8-26.3c1.4-8.5-2.2-12.8-10.9-13c-1.8-0.1-3.6,0-5.4,0c-51.8,0-103.6,0-155.3,0
		c-8.6,0-9.2-0.8-7.6-9.3c1.6-8.6,3.1-17.1,4.7-25.7c1.7-9.3,1.9-9.4,11.6-9.4c66.1,0,132.1,0,198.2,0c11.6,0,16.3-3.9,18.4-15.1
		c3.7-20,7.4-40.1,10.9-60.2C972,703.2,968.8,699.7,957.2,699.7z"/>
	<path class="st3" d="M1071.8,985c-0.8,0-1.6,0-2.3,0.1c-10.3,1.1-18.4,9.9-18.4,20.6c0,6.7,3.2,12.7,8.2,16.5
		c3.5,2.6,7.8,4.2,12.5,4.2c2.9,0,5.6-0.6,8.1-1.7c7.4-3.2,12.6-10.5,12.6-19.1c0-4.3-1.3-8.2-3.5-11.5
		C1085.3,988.6,1078.9,985,1071.8,985z"/>
	<path class="st1" d="M1077.8,945.6c0.7,0.1,1.5,0.2,2.3,0.3C1079.3,945.8,1078.5,945.7,1077.8,945.6z"/>
	<path class="st2" d="M1538,989.8c-0.8,0-1.5,0-2.3,0.1c-10.4,1.1-18.4,9.9-18.4,20.6c0,6.7,3.2,12.7,8.2,16.5
		c3.5,2.6,7.8,4.2,12.5,4.2c2.9,0,5.6-0.6,8.1-1.7c7.4-3.2,12.6-10.5,12.6-19.1c0-4.3-1.3-8.2-3.5-11.5
		C1551.5,993.5,1545.2,989.8,1538,989.8z"/>
	<path class="st3" d="M1137.6,696.5c-20,0.6-40.1,0.1-60.1,0.1c-20.6,0-41.3-0.1-61.9,0c-13,0.1-22.7,7.6-25.2,20
		c-3.5,17.7-6.7,35.4-9.6,53.2c-1.9,11.9,4.8,19.6,16.9,19.8c7.7,0.1,15.5,0,23.2,0c11.4,0,15.1,4.4,13,15.6
		c-5.7,31.3-11.4,62.5-17.2,93.8h55.9h23.1v15.1v30.7v6.1c0,0-0.1-0.1-0.3-0.2c-3.3-2.3-8.1-3.7-12.5-4.4c-1-0.2-2-0.4-3-0.5
		c-0.8-0.1-1.5-0.2-2.3-0.3c-1.3-0.1-2.6-0.2-3.9-0.3c-1,0-1.6-0.1-1.6-0.1l0,0c-0.2,0-0.3,0-0.5,0c-17.8,0-33.9,7.8-45,20.1h-22.1
		c-4,22-8,43.9-12,65.9c-2.5,13.6,4.2,21.5,18,21.5c11.2,0,22.3,0,33.5,0c-16.2-9.5-27.1-27.1-27.1-47.1c0-11.5,3.6-22.1,9.6-31
		c9.9-14.3,26.3-23.7,45-23.7c6.8,0,13.2,1.2,19.2,3.5c8,3,15.1,7.9,20.9,14.1c15-83,29.9-166,45.3-248.9
		C1159.5,707.3,1153.2,696,1137.6,696.5z"/>
</g>
</svg>
