<?xml version="1.0" encoding="UTF-8"?>
<svg width="1200pt" height="1200pt" version="1.1" viewBox="0 0 1200 1200" xmlns="http://www.w3.org/2000/svg">
 <path d="m460.74 390.05h40.594c3.375 0 6.0469 2.8125 6.0469 6.2812v23.812l55.875-7.9688 4.7812-41.859c2.1094-17.812-8.8125-16.969-38.25-11.766-23.672 4.2188-65.109 11.062-67.922-12.75l8.25-44.953 103.92-1.4062c8.6719-52.125 42.844-54.188 51.844 0l103.92 1.4062 8.25 44.953c-2.8125 23.812-44.25 16.969-67.922 12.75-29.438-5.2031-40.312-6.0469-38.25 11.766l4.7812 41.859 55.875 7.9688v-23.812c0-3.5156 2.6719-6.2812 6-6.2812h40.594c3.375 0 6.1875 2.8125 6.1875 6.2812v90.469c0 3.375-2.8125 6.2812-6.1875 6.2812h-40.594c-3.375 0-6-2.9531-6-6.2812v-26.344l-48.188 18.469 3.1875 27.188c42 19.734 54.609 35.297 67.641 90.75-47.906-0.42188 22.125 33.609 27.328 157.82l-61.875-0.14062 0.14062 32.766 11.766 4.5938v-22.828c0-3.4688 2.6719-6.2812 6-6.2812h40.594c3.375 0 6.1875 2.8125 6.1875 6.2812v90.469c0 3.375-2.8125 6.2812-6.1875 6.2812h-40.594c-3.375 0-6-2.9062-6-6.2812v-25.219l-11.484 2.8125v27.188l-27 0.28125 0.28125 13.312 60.188 11.766 4.9219 50.719c-38.906-0.28125-77.859-0.42188-116.81-0.42188v-62.203l37.5 0.046875v-13.031h-80.391v13.031h37.5v62.203c-38.953 0-77.859 0.14062-116.81 0.42188l4.875-50.719 60.234-11.766 0.28125-13.312-27-0.28125 0.14062-27.188-11.625-2.8125v25.219c0 3.375-2.6719 6.2812-6.0469 6.2812h-40.594c-3.375 0-6-2.9062-6-6.2812v-90.469c0-3.4688 2.625-6.2812 6-6.2812h40.594c3.375 0 6.0469 2.8125 6.0469 6.2812v22.828l11.766-4.5938 0.14062-32.766-61.875 0.14062c5.3438-124.22 75.188-158.26 27.281-157.82 13.031-55.453 25.641-71.016 67.688-90.75l3.1875-27.188-48.188-18.469v26.344c0 3.375-2.6719 6.2812-6.0469 6.2812h-40.594c-3.375 0-6-2.9531-6-6.2812v-90.469c0-3.5625 2.6719-6.3281 6.0469-6.3281z" fill-rule="evenodd"/>
</svg>
