<?xml version="1.0" encoding="UTF-8"?>
<svg width="1200pt" height="1200pt" version="1.1" viewBox="0 0 1200 1200" xmlns="http://www.w3.org/2000/svg">
 <path d="m600 37.5c-149.18 0-292.26 59.262-397.75 164.75-105.49 105.49-164.75 248.56-164.75 397.75s59.262 292.26 164.75 397.75c105.49 105.49 248.56 164.75 397.75 164.75s292.26-59.262 397.75-164.75c105.49-105.49 164.75-248.56 164.75-397.75 0.13281-98.777-25.785-195.84-75.133-281.41-49.352-85.562-120.39-156.61-205.96-205.96-85.566-49.348-182.63-75.266-281.41-75.133zm121.88 146.25c84.332 24.637 158.99 74.734 213.75 143.44-3.8594 2.5469-7.9375 4.7422-12.188 6.5625-53.477-64.953-125.27-112.3-206.04-135.88-80.762-23.578-166.75-22.293-246.78 3.6875-2.1445-4.5703-4.6523-8.9609-7.5-13.125 83.848-27.363 173.96-28.996 258.75-4.6875zm-121.88 698.44c-55.945 0.09375-110.66-16.418-157.21-47.441-46.555-31.023-82.855-75.164-104.31-126.83-21.449-51.668-27.09-108.54-16.195-163.41 10.891-54.875 37.82-105.28 77.379-144.84 39.559-39.559 89.965-66.488 144.84-77.379 54.871-10.895 111.74-5.2539 163.41 16.195 51.668 21.453 95.809 57.754 126.83 104.31 31.023 46.555 47.535 101.27 47.441 157.21-0.125 74.801-29.895 146.51-82.789 199.4-52.891 52.895-124.6 82.664-199.4 82.789zm120.94 97.5c-75.758 24.398-157.11 25.379-233.44 2.8125-76.18-22.785-143.98-67.445-195-128.44 3.5273-2.8203 7.2891-5.3281 11.25-7.5 49.207 58.324 114.38 101.01 187.5 122.81 73.27 21.617 151.36 20.641 224.06-2.8125 1.875 4.6875 3.75 8.4375 5.625 13.125zm-13.125-750c-73.27-21.617-151.36-20.641-224.06 2.8125-1.3008-4.3047-3.1953-8.4062-5.625-12.188 75.738-24.25 156.96-25.555 233.44-3.75 76.398 22.309 144.34 67.055 195 128.44-3.5273 2.8203-7.2891 5.3281-11.25 7.5-49.031-58.52-114.26-101.25-187.5-122.81zm-487.5 574.69c-54.855-100.77-67.605-219.15-35.461-329.29 32.148-110.14 106.57-203.08 207.02-258.52l22.5 41.25c-89.637 49.352-156.05 132.22-184.7 230.45-28.645 98.234-17.18 203.82 31.883 293.61zm257.81 210.94c-84.711-24.379-159.74-74.508-214.69-143.44 4.6875-1.875 8.4375-4.6875 13.125-6.5625 53.23 65 124.86 112.4 205.49 135.98 80.633 23.59 166.52 22.266 246.38-3.7969 2.8125 4.6875 4.6875 8.4375 7.5 13.125-83.449 27.82-173.41 29.453-257.81 4.6875zm329.06-38.438-22.5-41.25c59.508-32.484 109.41-80.07 144.69-137.96 35.277-57.895 54.691-124.06 56.281-191.84s-14.695-134.78-47.219-194.27l41.25-22.5c54.91 100.86 67.586 219.37 35.25 329.56-32.336 110.19-107.05 203.06-207.75 258.25zm-92.812-419.06 2.8125 7.5c2.0312 6.5195 6.1758 12.176 11.777 16.082 5.6016 3.9023 12.34 5.832 19.16 5.4805l45-1.875c7.5664-0.47266 14.512-4.3516 18.887-10.547 4.3711-6.1953 5.7031-14.039 3.6133-21.328l-15-44.062c-2.5039-6.8711-7.9805-12.242-14.898-14.609-6.9219-2.3672-14.539-1.4766-20.727 2.4219l-38.438 26.25c-5.4531 3.7383-9.5703 9.1172-11.762 15.352-2.1914 6.2383-2.3398 13.008-0.42578 19.336zm101.25 88.125c2.0898-7.2891 0.75781-15.133-3.6133-21.328-4.375-6.1953-11.32-10.074-18.887-10.547l-45-1.875c-6.8203-0.35156-13.559 1.5781-19.16 5.4805-5.6016 3.9062-9.7461 9.5625-11.777 16.082l-2.8125 7.5c-1.9141 6.3281-1.7656 13.098 0.42578 19.336 2.1914 6.2344 6.3086 11.613 11.762 15.352l38.438 26.25c6.1875 3.8984 13.805 4.7891 20.727 2.4219 6.918-2.3672 12.395-7.7383 14.898-14.609zm-141.56-143.44c5.5742 3.7617 12.18 5.6914 18.898 5.5234 6.7227-0.16797 13.223-2.4258 18.602-6.4609l36.562-28.125c5.7266-4.6953 8.8906-11.828 8.5195-19.223-0.36719-7.3984-4.2266-14.18-10.395-18.277l-36.562-27.188c-6.0156-4.2812-13.645-5.6055-20.75-3.6016-7.1055 2.0039-12.922 7.1211-15.812 13.914l-15.938 44.062c-2.2266 6.2109-2.332 12.988-0.29688 19.266s6.0977 11.699 11.547 15.422zm37.5 195c-5.3789-4.0352-11.879-6.293-18.602-6.4609-6.7188-0.16797-13.324 1.7617-18.898 5.5234l-5.625 4.6875c-5.4492 3.7227-9.5117 9.1445-11.547 15.422s-1.9297 13.055 0.29688 19.266l15.938 43.125c2.7539 6.9023 8.4844 12.188 15.59 14.371 7.1016 2.1875 14.812 1.0391 20.973-3.1211l36.562-27.188c6.168-4.0977 10.027-10.879 10.395-18.277 0.37109-7.3945-2.793-14.527-8.5195-19.223zm-146.25-242.81c2.0078 6.4258 5.9844 12.055 11.367 16.094 5.3867 4.0391 11.902 6.2773 18.633 6.4062h7.5c6.7305-0.12891 13.246-2.3672 18.633-6.4062 5.3828-4.0391 9.3594-9.668 11.367-16.094l12.188-44.062c2.1758-7.3438 0.73047-15.289-3.8945-21.395-4.6289-6.1094-11.883-9.6484-19.543-9.543h-45c-7.5352 0.23047-14.562 3.8594-19.113 9.8672-4.5508 6.0078-6.1406 13.754-4.3242 21.07zm67.5 289.69c-2.0078-6.4258-5.9844-12.055-11.367-16.094-5.3867-4.0391-11.902-6.2773-18.633-6.4062h-7.5c-6.7305 0.12891-13.246 2.3672-18.633 6.4062-5.3828 4.0391-9.3594 9.668-11.367 16.094l-12.188 44.062c-1.8164 7.3164-0.22656 15.062 4.3242 21.07 4.5508 6.0078 11.578 9.6367 19.113 9.8672h45c7.6602 0.10547 14.914-3.4336 19.543-9.543 4.625-6.1055 6.0703-14.051 3.8945-21.395zm-32.812-236.25c-32.656 0-62.832 17.422-79.16 45.703s-16.328 63.125 0 91.406 46.504 45.703 79.16 45.703 62.832-17.422 79.16-45.703 16.328-63.125 0-91.406-46.504-45.703-79.16-45.703zm-113.44-6.5625c5.3828 4.0195 11.883 6.2695 18.602 6.4375 6.7148 0.16797 13.32-1.7539 18.898-5.5l6.5625-4.6875c5.2969-3.8398 9.1797-9.3203 11.043-15.594 1.8672-6.2695 1.6094-12.984-0.73047-19.094l-15.938-44.062c-2.6055-6.8047-8.25-11.992-15.246-14.02-7-2.0234-14.543-0.65234-20.379 3.707l-37.5 27.188c-6.1641 4.2539-9.8438 11.262-9.8438 18.75s3.6797 14.496 9.8438 18.75zm37.5 195c-5.5781-3.7461-12.184-5.668-18.898-5.5-6.7188 0.16797-13.219 2.418-18.602 6.4375l-34.688 28.125c-6.1641 4.2539-9.8438 11.262-9.8438 18.75s3.6797 14.496 9.8438 18.75l37.5 27.188c5.9414 4.4062 13.633 5.6953 20.684 3.4688 7.0547-2.2266 12.609-7.6992 14.941-14.719l15.938-43.125c2.3906-6.1055 2.6719-12.832 0.80469-19.117-1.8711-6.2812-5.7812-11.762-11.117-15.57zm-119.06-111.56 46.875 1.875c6.6094-0.074219 13.039-2.1836 18.406-6.043s9.418-9.2773 11.594-15.52l1.875-7.5c2.1367-6.3125 2.0977-13.16-0.10938-19.445-2.2109-6.2891-6.4609-11.656-12.078-15.242l-38.438-26.25c-6.0391-3.9062-13.547-4.7969-20.332-2.4102-6.7852 2.3828-12.086 7.7734-14.355 14.598l-15 44.062c-2.293 7.1523-1.1719 14.957 3.0352 21.18 4.207 6.2188 11.035 10.16 18.527 10.695zm78.75 56.25-1.875-7.5c-2.1758-6.2422-6.2266-11.66-11.594-15.52s-11.797-5.9688-18.406-6.043l-46.875 1.875c-7.4922 0.53516-14.32 4.4766-18.527 10.695-4.207 6.2227-5.3281 14.027-3.0352 21.18l15 44.062c2.2695 6.8242 7.5703 12.215 14.355 14.598 6.7852 2.3867 14.293 1.4961 20.332-2.4102l38.438-26.25c5.6172-3.5859 9.8672-8.9531 12.078-15.242 2.207-6.2852 2.2461-13.133 0.10938-19.445z"/>
 <path d="m471.56 675.94-38.438 26.25c-6.0391 3.9062-13.547 4.7969-20.332 2.4102-6.7852-2.3828-12.086-7.7734-14.355-14.598l-15-44.062c-2.293-7.1523-1.1719-14.957 3.0352-21.18 4.207-6.2188 11.035-10.16 18.527-10.695l46.875-1.875c6.6094 0.074219 13.039 2.1836 18.406 6.043s9.418 9.2773 11.594 15.52l1.875 7.5c2.1367 6.3125 2.0977 13.16-0.10938 19.445-2.2109 6.2891-6.4609 11.656-12.078 15.242z"/>
 <path d="m383.44 553.12 15-44.062c2.2695-6.8242 7.5703-12.215 14.355-14.598 6.7852-2.3867 14.293-1.4961 20.332 2.4102l38.438 26.25c5.6172 3.5859 9.8672 8.9531 12.078 15.242 2.207 6.2852 2.2461 13.133 0.10938 19.445l-1.875 7.5c-2.1758 6.2422-6.2266 11.66-11.594 15.52s-11.797 5.9688-18.406 6.043l-46.875-1.875c-7.4922-0.53516-14.32-4.4766-18.527-10.695-4.207-6.2227-5.3281-14.027-3.0352-21.18z"/>
 <path d="m530.62 701.25c5.3359 3.8086 9.2461 9.2891 11.117 15.57 1.8672 6.2852 1.5859 13.012-0.80469 19.117l-15.938 43.125c-2.332 7.0195-7.8867 12.492-14.941 14.719-7.0508 2.2266-14.742 0.9375-20.684-3.4688l-37.5-27.188c-6.1641-4.2539-9.8438-11.262-9.8438-18.75s3.6797-14.496 9.8438-18.75l34.688-28.125c5.3828-4.0195 11.883-6.2695 18.602-6.4375 6.7148-0.16797 13.32 1.7539 18.898 5.5z"/>
 <path d="m451.88 473.44c-6.1641-4.2539-9.8438-11.262-9.8438-18.75s3.6797-14.496 9.8438-18.75l37.5-27.188c5.8359-4.3594 13.379-5.7305 20.379-3.707 6.9961 2.0273 12.641 7.2148 15.246 14.02l15.938 44.062c2.3398 6.1094 2.5977 12.824 0.73047 19.094-1.8633 6.2734-5.7461 11.754-11.043 15.594l-6.5625 4.6875c-5.5781 3.7461-12.184 5.668-18.898 5.5-6.7188-0.16797-13.219-2.418-18.602-6.4375z"/>
 <path d="m690.94 600c0 32.656-17.422 62.832-45.703 79.16s-63.125 16.328-91.406 0-45.703-46.504-45.703-79.16 17.422-62.832 45.703-79.16 63.125-16.328 91.406 0 45.703 46.504 45.703 79.16z"/>
 <path d="m645 788.44c2.1758 7.3438 0.73047 15.289-3.8945 21.395-4.6289 6.1094-11.883 9.6484-19.543 9.543h-45c-7.5352-0.23047-14.562-3.8594-19.113-9.8672-4.5508-6.0078-6.1406-13.754-4.3242-21.07l12.188-44.062c2.0078-6.4258 5.9844-12.055 11.367-16.094 5.3867-4.0391 11.902-6.2773 18.633-6.4062h7.5c6.7305 0.12891 13.246 2.3672 18.633 6.4062 5.3828 4.0391 9.3594 9.668 11.367 16.094z"/>
 <path d="m553.12 410.62c-1.8164-7.3164-0.22656-15.062 4.3242-21.07 4.5508-6.0078 11.578-9.6367 19.113-9.8672h45c7.6602-0.10547 14.914 3.4336 19.543 9.543 4.625 6.1055 6.0703 14.051 3.8945 21.395l-12.188 44.062c-2.0078 6.4258-5.9844 12.055-11.367 16.094-5.3867 4.0391-11.902 6.2773-18.633 6.4062h-7.5c-6.7305-0.12891-13.246-2.3672-18.633-6.4062-5.3828-4.0391-9.3594-9.668-11.367-16.094z"/>
 <path d="m748.12 725.62c5.7266 4.6953 8.8906 11.828 8.5195 19.223-0.36719 7.3984-4.2266 14.18-10.395 18.277l-36.562 27.188c-6.1602 4.1602-13.871 5.3086-20.973 3.1211-7.1055-2.1836-12.836-7.4688-15.59-14.371l-15.938-43.125c-2.2266-6.2109-2.332-12.988-0.29688-19.266s6.0977-11.699 11.547-15.422l5.625-4.6875c5.5742-3.7617 12.18-5.6914 18.898-5.5234 6.7227 0.16797 13.223 2.4258 18.602 6.4609z"/>
 <path d="m668.44 497.81c-5.4492-3.7227-9.5117-9.1445-11.547-15.422s-1.9297-13.055 0.29688-19.266l15.938-44.062c2.8906-6.793 8.707-11.91 15.812-13.914 7.1055-2.0039 14.734-0.67969 20.75 3.6016l36.562 27.188c6.168 4.0977 10.027 10.879 10.395 18.277 0.37109 7.3945-2.793 14.527-8.5195 19.223l-36.562 28.125c-5.3789 4.0352-11.879 6.293-18.602 6.4609-6.7188 0.16797-13.324-1.7617-18.898-5.5234z"/>
 <path d="m815.62 645.94-15 44.062c-2.5039 6.8711-7.9805 12.242-14.898 14.609-6.9219 2.3672-14.539 1.4766-20.727-2.4219l-38.438-26.25c-5.4531-3.7383-9.5703-9.1172-11.762-15.352-2.1914-6.2383-2.3398-13.008-0.42578-19.336l2.8125-7.5c2.0312-6.5195 6.1758-12.176 11.777-16.082 5.6016-3.9023 12.34-5.832 19.16-5.4805l45 1.875c7.5664 0.47266 14.512 4.3516 18.887 10.547 4.3711 6.1953 5.7031 14.039 3.6133 21.328z"/>
 <path d="m726.56 523.12 38.438-26.25c6.1875-3.8984 13.805-4.7891 20.727-2.4219 6.918 2.3672 12.395 7.7383 14.898 14.609l15 44.062c2.0898 7.2891 0.75781 15.133-3.6133 21.328-4.375 6.1953-11.32 10.074-18.887 10.547l-45 1.875c-6.8203 0.35156-13.559-1.5781-19.16-5.4805-5.6016-3.9062-9.7461-9.5625-11.777-16.082l-2.8125-7.5c-1.9141-6.3281-1.7656-13.098 0.42578-19.336 2.1914-6.2344 6.3086-11.613 11.762-15.352z"/>
 <path d="m690.94 600c0 32.656-17.422 62.832-45.703 79.16s-63.125 16.328-91.406 0-45.703-46.504-45.703-79.16 17.422-62.832 45.703-79.16 63.125-16.328 91.406 0 45.703 46.504 45.703 79.16z"/>
 <path d="m690.94 600c0 32.656-17.422 62.832-45.703 79.16s-63.125 16.328-91.406 0-45.703-46.504-45.703-79.16 17.422-62.832 45.703-79.16 63.125-16.328 91.406 0 45.703 46.504 45.703 79.16z"/>
 <path d="m690.94 600c0 32.656-17.422 62.832-45.703 79.16s-63.125 16.328-91.406 0-45.703-46.504-45.703-79.16 17.422-62.832 45.703-79.16 63.125-16.328 91.406 0 45.703 46.504 45.703 79.16z"/>
 <path d="m690.94 600c0 32.656-17.422 62.832-45.703 79.16s-63.125 16.328-91.406 0-45.703-46.504-45.703-79.16 17.422-62.832 45.703-79.16 63.125-16.328 91.406 0 45.703 46.504 45.703 79.16z"/>
 <path d="m690.94 600c0 32.656-17.422 62.832-45.703 79.16s-63.125 16.328-91.406 0-45.703-46.504-45.703-79.16 17.422-62.832 45.703-79.16 63.125-16.328 91.406 0 45.703 46.504 45.703 79.16z"/>
 <path d="m690.94 600c0 32.656-17.422 62.832-45.703 79.16s-63.125 16.328-91.406 0-45.703-46.504-45.703-79.16 17.422-62.832 45.703-79.16 63.125-16.328 91.406 0 45.703 46.504 45.703 79.16z"/>
 <path d="m690.94 600c0 32.656-17.422 62.832-45.703 79.16s-63.125 16.328-91.406 0-45.703-46.504-45.703-79.16 17.422-62.832 45.703-79.16 63.125-16.328 91.406 0 45.703 46.504 45.703 79.16z"/>
 <path d="m690.94 600c0 32.656-17.422 62.832-45.703 79.16s-63.125 16.328-91.406 0-45.703-46.504-45.703-79.16 17.422-62.832 45.703-79.16 63.125-16.328 91.406 0 45.703 46.504 45.703 79.16z"/>
 <path d="m690.94 600c0 32.656-17.422 62.832-45.703 79.16s-63.125 16.328-91.406 0-45.703-46.504-45.703-79.16 17.422-62.832 45.703-79.16 63.125-16.328 91.406 0 45.703 46.504 45.703 79.16z"/>
 <path d="m690.94 600c0 32.656-17.422 62.832-45.703 79.16s-63.125 16.328-91.406 0-45.703-46.504-45.703-79.16 17.422-62.832 45.703-79.16 63.125-16.328 91.406 0 45.703 46.504 45.703 79.16z"/>
 <path d="m690.94 600c0 32.656-17.422 62.832-45.703 79.16s-63.125 16.328-91.406 0-45.703-46.504-45.703-79.16 17.422-62.832 45.703-79.16 63.125-16.328 91.406 0 45.703 46.504 45.703 79.16z"/>
 <path d="m690.94 600c0 32.656-17.422 62.832-45.703 79.16s-63.125 16.328-91.406 0-45.703-46.504-45.703-79.16 17.422-62.832 45.703-79.16 63.125-16.328 91.406 0 45.703 46.504 45.703 79.16z"/>
 <path d="m690.94 600c0 32.656-17.422 62.832-45.703 79.16s-63.125 16.328-91.406 0-45.703-46.504-45.703-79.16 17.422-62.832 45.703-79.16 63.125-16.328 91.406 0 45.703 46.504 45.703 79.16z"/>
 <path d="m690.94 600c0 32.656-17.422 62.832-45.703 79.16s-63.125 16.328-91.406 0-45.703-46.504-45.703-79.16 17.422-62.832 45.703-79.16 63.125-16.328 91.406 0 45.703 46.504 45.703 79.16z"/>
 <path d="m690.94 600c0 32.656-17.422 62.832-45.703 79.16s-63.125 16.328-91.406 0-45.703-46.504-45.703-79.16 17.422-62.832 45.703-79.16 63.125-16.328 91.406 0 45.703 46.504 45.703 79.16z"/>
 <path d="m690.94 600c0 32.656-17.422 62.832-45.703 79.16s-63.125 16.328-91.406 0-45.703-46.504-45.703-79.16 17.422-62.832 45.703-79.16 63.125-16.328 91.406 0 45.703 46.504 45.703 79.16z"/>
 <path d="m690.94 600c0 32.656-17.422 62.832-45.703 79.16s-63.125 16.328-91.406 0-45.703-46.504-45.703-79.16 17.422-62.832 45.703-79.16 63.125-16.328 91.406 0 45.703 46.504 45.703 79.16z"/>
 <path d="m690.94 600c0 32.656-17.422 62.832-45.703 79.16s-63.125 16.328-91.406 0-45.703-46.504-45.703-79.16 17.422-62.832 45.703-79.16 63.125-16.328 91.406 0 45.703 46.504 45.703 79.16z"/>
 <path d="m690.94 600c0 32.656-17.422 62.832-45.703 79.16s-63.125 16.328-91.406 0-45.703-46.504-45.703-79.16 17.422-62.832 45.703-79.16 63.125-16.328 91.406 0 45.703 46.504 45.703 79.16z"/>
 <path d="m690.94 600c0 32.656-17.422 62.832-45.703 79.16s-63.125 16.328-91.406 0-45.703-46.504-45.703-79.16 17.422-62.832 45.703-79.16 63.125-16.328 91.406 0 45.703 46.504 45.703 79.16z"/>
 <path d="m690.94 600c0 32.656-17.422 62.832-45.703 79.16s-63.125 16.328-91.406 0-45.703-46.504-45.703-79.16 17.422-62.832 45.703-79.16 63.125-16.328 91.406 0 45.703 46.504 45.703 79.16z"/>
 <path d="m690.94 600c0 32.656-17.422 62.832-45.703 79.16s-63.125 16.328-91.406 0-45.703-46.504-45.703-79.16 17.422-62.832 45.703-79.16 63.125-16.328 91.406 0 45.703 46.504 45.703 79.16z"/>
 <path d="m690.94 600c0 32.656-17.422 62.832-45.703 79.16s-63.125 16.328-91.406 0-45.703-46.504-45.703-79.16 17.422-62.832 45.703-79.16 63.125-16.328 91.406 0 45.703 46.504 45.703 79.16z"/>
 <path d="m690.94 600c0 32.656-17.422 62.832-45.703 79.16s-63.125 16.328-91.406 0-45.703-46.504-45.703-79.16 17.422-62.832 45.703-79.16 63.125-16.328 91.406 0 45.703 46.504 45.703 79.16z"/>
 <path d="m690.94 600c0 32.656-17.422 62.832-45.703 79.16s-63.125 16.328-91.406 0-45.703-46.504-45.703-79.16 17.422-62.832 45.703-79.16 63.125-16.328 91.406 0 45.703 46.504 45.703 79.16z"/>
 <path d="m690.94 600c0 32.656-17.422 62.832-45.703 79.16s-63.125 16.328-91.406 0-45.703-46.504-45.703-79.16 17.422-62.832 45.703-79.16 63.125-16.328 91.406 0 45.703 46.504 45.703 79.16z"/>
 <path d="m690.94 600c0 32.656-17.422 62.832-45.703 79.16s-63.125 16.328-91.406 0-45.703-46.504-45.703-79.16 17.422-62.832 45.703-79.16 63.125-16.328 91.406 0 45.703 46.504 45.703 79.16z"/>
 <path d="m690.94 600c0 32.656-17.422 62.832-45.703 79.16s-63.125 16.328-91.406 0-45.703-46.504-45.703-79.16 17.422-62.832 45.703-79.16 63.125-16.328 91.406 0 45.703 46.504 45.703 79.16z"/>
 <path d="m690.94 600c0 32.656-17.422 62.832-45.703 79.16s-63.125 16.328-91.406 0-45.703-46.504-45.703-79.16 17.422-62.832 45.703-79.16 63.125-16.328 91.406 0 45.703 46.504 45.703 79.16z"/>
 <path d="m690.94 600c0 32.656-17.422 62.832-45.703 79.16s-63.125 16.328-91.406 0-45.703-46.504-45.703-79.16 17.422-62.832 45.703-79.16 63.125-16.328 91.406 0 45.703 46.504 45.703 79.16z"/>
 <path d="m690.94 600c0 32.656-17.422 62.832-45.703 79.16s-63.125 16.328-91.406 0-45.703-46.504-45.703-79.16 17.422-62.832 45.703-79.16 63.125-16.328 91.406 0 45.703 46.504 45.703 79.16z"/>
 <path d="m690.94 600c0 32.656-17.422 62.832-45.703 79.16s-63.125 16.328-91.406 0-45.703-46.504-45.703-79.16 17.422-62.832 45.703-79.16 63.125-16.328 91.406 0 45.703 46.504 45.703 79.16z"/>
 <path d="m690.94 600c0 32.656-17.422 62.832-45.703 79.16s-63.125 16.328-91.406 0-45.703-46.504-45.703-79.16 17.422-62.832 45.703-79.16 63.125-16.328 91.406 0 45.703 46.504 45.703 79.16z"/>
 <path d="m690.94 600c0 32.656-17.422 62.832-45.703 79.16s-63.125 16.328-91.406 0-45.703-46.504-45.703-79.16 17.422-62.832 45.703-79.16 63.125-16.328 91.406 0 45.703 46.504 45.703 79.16z"/>
 <path d="m690.94 600c0 32.656-17.422 62.832-45.703 79.16s-63.125 16.328-91.406 0-45.703-46.504-45.703-79.16 17.422-62.832 45.703-79.16 63.125-16.328 91.406 0 45.703 46.504 45.703 79.16z"/>
 <path d="m690.94 600c0 32.656-17.422 62.832-45.703 79.16s-63.125 16.328-91.406 0-45.703-46.504-45.703-79.16 17.422-62.832 45.703-79.16 63.125-16.328 91.406 0 45.703 46.504 45.703 79.16z"/>
 <path d="m690.94 600c0 32.656-17.422 62.832-45.703 79.16s-63.125 16.328-91.406 0-45.703-46.504-45.703-79.16 17.422-62.832 45.703-79.16 63.125-16.328 91.406 0 45.703 46.504 45.703 79.16z"/>
 <path d="m690.94 600c0 32.656-17.422 62.832-45.703 79.16s-63.125 16.328-91.406 0-45.703-46.504-45.703-79.16 17.422-62.832 45.703-79.16 63.125-16.328 91.406 0 45.703 46.504 45.703 79.16z"/>
 <path d="m690.94 600c0 32.656-17.422 62.832-45.703 79.16s-63.125 16.328-91.406 0-45.703-46.504-45.703-79.16 17.422-62.832 45.703-79.16 63.125-16.328 91.406 0 45.703 46.504 45.703 79.16z"/>
 <path d="m690.94 600c0 32.656-17.422 62.832-45.703 79.16s-63.125 16.328-91.406 0-45.703-46.504-45.703-79.16 17.422-62.832 45.703-79.16 63.125-16.328 91.406 0 45.703 46.504 45.703 79.16z"/>
 <path d="m690.94 600c0 32.656-17.422 62.832-45.703 79.16s-63.125 16.328-91.406 0-45.703-46.504-45.703-79.16 17.422-62.832 45.703-79.16 63.125-16.328 91.406 0 45.703 46.504 45.703 79.16z"/>
 <path d="m690.94 600c0 32.656-17.422 62.832-45.703 79.16s-63.125 16.328-91.406 0-45.703-46.504-45.703-79.16 17.422-62.832 45.703-79.16 63.125-16.328 91.406 0 45.703 46.504 45.703 79.16z"/>
 <path d="m690.94 600c0 32.656-17.422 62.832-45.703 79.16s-63.125 16.328-91.406 0-45.703-46.504-45.703-79.16 17.422-62.832 45.703-79.16 63.125-16.328 91.406 0 45.703 46.504 45.703 79.16z"/>
 <path d="m690.94 600c0 32.656-17.422 62.832-45.703 79.16s-63.125 16.328-91.406 0-45.703-46.504-45.703-79.16 17.422-62.832 45.703-79.16 63.125-16.328 91.406 0 45.703 46.504 45.703 79.16z"/>
 <path d="m690.94 600c0 32.656-17.422 62.832-45.703 79.16s-63.125 16.328-91.406 0-45.703-46.504-45.703-79.16 17.422-62.832 45.703-79.16 63.125-16.328 91.406 0 45.703 46.504 45.703 79.16z"/>
 <path d="m690.94 600c0 32.656-17.422 62.832-45.703 79.16s-63.125 16.328-91.406 0-45.703-46.504-45.703-79.16 17.422-62.832 45.703-79.16 63.125-16.328 91.406 0 45.703 46.504 45.703 79.16z"/>
 <path d="m690.94 600c0 32.656-17.422 62.832-45.703 79.16s-63.125 16.328-91.406 0-45.703-46.504-45.703-79.16 17.422-62.832 45.703-79.16 63.125-16.328 91.406 0 45.703 46.504 45.703 79.16z"/>
 <path d="m690.94 600c0 32.656-17.422 62.832-45.703 79.16s-63.125 16.328-91.406 0-45.703-46.504-45.703-79.16 17.422-62.832 45.703-79.16 63.125-16.328 91.406 0 45.703 46.504 45.703 79.16z"/>
 <path d="m690.94 600c0 32.656-17.422 62.832-45.703 79.16s-63.125 16.328-91.406 0-45.703-46.504-45.703-79.16 17.422-62.832 45.703-79.16 63.125-16.328 91.406 0 45.703 46.504 45.703 79.16z"/>
 <path d="m690.94 600c0 32.656-17.422 62.832-45.703 79.16s-63.125 16.328-91.406 0-45.703-46.504-45.703-79.16 17.422-62.832 45.703-79.16 63.125-16.328 91.406 0 45.703 46.504 45.703 79.16z"/>
 <path d="m690.94 600c0 32.656-17.422 62.832-45.703 79.16s-63.125 16.328-91.406 0-45.703-46.504-45.703-79.16 17.422-62.832 45.703-79.16 63.125-16.328 91.406 0 45.703 46.504 45.703 79.16z"/>
 <path d="m690.94 600c0 32.656-17.422 62.832-45.703 79.16s-63.125 16.328-91.406 0-45.703-46.504-45.703-79.16 17.422-62.832 45.703-79.16 63.125-16.328 91.406 0 45.703 46.504 45.703 79.16z"/>
 <path d="m690.94 600c0 32.656-17.422 62.832-45.703 79.16s-63.125 16.328-91.406 0-45.703-46.504-45.703-79.16 17.422-62.832 45.703-79.16 63.125-16.328 91.406 0 45.703 46.504 45.703 79.16z"/>
 <path d="m690.94 600c0 32.656-17.422 62.832-45.703 79.16s-63.125 16.328-91.406 0-45.703-46.504-45.703-79.16 17.422-62.832 45.703-79.16 63.125-16.328 91.406 0 45.703 46.504 45.703 79.16z"/>
 <path d="m690.94 600c0 32.656-17.422 62.832-45.703 79.16s-63.125 16.328-91.406 0-45.703-46.504-45.703-79.16 17.422-62.832 45.703-79.16 63.125-16.328 91.406 0 45.703 46.504 45.703 79.16z"/>
 <path d="m690.94 600c0 32.656-17.422 62.832-45.703 79.16s-63.125 16.328-91.406 0-45.703-46.504-45.703-79.16 17.422-62.832 45.703-79.16 63.125-16.328 91.406 0 45.703 46.504 45.703 79.16z"/>
 <path d="m690.94 600c0 32.656-17.422 62.832-45.703 79.16s-63.125 16.328-91.406 0-45.703-46.504-45.703-79.16 17.422-62.832 45.703-79.16 63.125-16.328 91.406 0 45.703 46.504 45.703 79.16z"/>
 <path d="m690.94 600c0 32.656-17.422 62.832-45.703 79.16s-63.125 16.328-91.406 0-45.703-46.504-45.703-79.16 17.422-62.832 45.703-79.16 63.125-16.328 91.406 0 45.703 46.504 45.703 79.16z"/>
 <path d="m690.94 600c0 32.656-17.422 62.832-45.703 79.16s-63.125 16.328-91.406 0-45.703-46.504-45.703-79.16 17.422-62.832 45.703-79.16 63.125-16.328 91.406 0 45.703 46.504 45.703 79.16z"/>
 <path d="m690.94 600c0 32.656-17.422 62.832-45.703 79.16s-63.125 16.328-91.406 0-45.703-46.504-45.703-79.16 17.422-62.832 45.703-79.16 63.125-16.328 91.406 0 45.703 46.504 45.703 79.16z"/>
 <path d="m690.94 600c0 32.656-17.422 62.832-45.703 79.16s-63.125 16.328-91.406 0-45.703-46.504-45.703-79.16 17.422-62.832 45.703-79.16 63.125-16.328 91.406 0 45.703 46.504 45.703 79.16z"/>
 <path d="m690.94 600c0 32.656-17.422 62.832-45.703 79.16s-63.125 16.328-91.406 0-45.703-46.504-45.703-79.16 17.422-62.832 45.703-79.16 63.125-16.328 91.406 0 45.703 46.504 45.703 79.16z"/>
 <path d="m690.94 600c0 32.656-17.422 62.832-45.703 79.16s-63.125 16.328-91.406 0-45.703-46.504-45.703-79.16 17.422-62.832 45.703-79.16 63.125-16.328 91.406 0 45.703 46.504 45.703 79.16z"/>
 <path d="m690.94 600c0 32.656-17.422 62.832-45.703 79.16s-63.125 16.328-91.406 0-45.703-46.504-45.703-79.16 17.422-62.832 45.703-79.16 63.125-16.328 91.406 0 45.703 46.504 45.703 79.16z"/>
 <path d="m690.94 600c0 32.656-17.422 62.832-45.703 79.16s-63.125 16.328-91.406 0-45.703-46.504-45.703-79.16 17.422-62.832 45.703-79.16 63.125-16.328 91.406 0 45.703 46.504 45.703 79.16z"/>
 <path d="m690.94 600c0 32.656-17.422 62.832-45.703 79.16s-63.125 16.328-91.406 0-45.703-46.504-45.703-79.16 17.422-62.832 45.703-79.16 63.125-16.328 91.406 0 45.703 46.504 45.703 79.16z"/>
 <path d="m690.94 600c0 32.656-17.422 62.832-45.703 79.16s-63.125 16.328-91.406 0-45.703-46.504-45.703-79.16 17.422-62.832 45.703-79.16 63.125-16.328 91.406 0 45.703 46.504 45.703 79.16z"/>
 <path d="m690.94 600c0 32.656-17.422 62.832-45.703 79.16s-63.125 16.328-91.406 0-45.703-46.504-45.703-79.16 17.422-62.832 45.703-79.16 63.125-16.328 91.406 0 45.703 46.504 45.703 79.16z"/>
 <path d="m690.94 600c0 32.656-17.422 62.832-45.703 79.16s-63.125 16.328-91.406 0-45.703-46.504-45.703-79.16 17.422-62.832 45.703-79.16 63.125-16.328 91.406 0 45.703 46.504 45.703 79.16z"/>
 <path d="m690.94 600c0 32.656-17.422 62.832-45.703 79.16s-63.125 16.328-91.406 0-45.703-46.504-45.703-79.16 17.422-62.832 45.703-79.16 63.125-16.328 91.406 0 45.703 46.504 45.703 79.16z"/>
 <path d="m690.94 600c0 32.656-17.422 62.832-45.703 79.16s-63.125 16.328-91.406 0-45.703-46.504-45.703-79.16 17.422-62.832 45.703-79.16 63.125-16.328 91.406 0 45.703 46.504 45.703 79.16z"/>
 <path d="m690.94 600c0 32.656-17.422 62.832-45.703 79.16s-63.125 16.328-91.406 0-45.703-46.504-45.703-79.16 17.422-62.832 45.703-79.16 63.125-16.328 91.406 0 45.703 46.504 45.703 79.16z"/>
 <path d="m690.94 600c0 32.656-17.422 62.832-45.703 79.16s-63.125 16.328-91.406 0-45.703-46.504-45.703-79.16 17.422-62.832 45.703-79.16 63.125-16.328 91.406 0 45.703 46.504 45.703 79.16z"/>
 <path d="m690.94 600c0 32.656-17.422 62.832-45.703 79.16s-63.125 16.328-91.406 0-45.703-46.504-45.703-79.16 17.422-62.832 45.703-79.16 63.125-16.328 91.406 0 45.703 46.504 45.703 79.16z"/>
 <path d="m690.94 600c0 32.656-17.422 62.832-45.703 79.16s-63.125 16.328-91.406 0-45.703-46.504-45.703-79.16 17.422-62.832 45.703-79.16 63.125-16.328 91.406 0 45.703 46.504 45.703 79.16z"/>
 <path d="m690.94 600c0 32.656-17.422 62.832-45.703 79.16s-63.125 16.328-91.406 0-45.703-46.504-45.703-79.16 17.422-62.832 45.703-79.16 63.125-16.328 91.406 0 45.703 46.504 45.703 79.16z"/>
 <path d="m690.94 600c0 32.656-17.422 62.832-45.703 79.16s-63.125 16.328-91.406 0-45.703-46.504-45.703-79.16 17.422-62.832 45.703-79.16 63.125-16.328 91.406 0 45.703 46.504 45.703 79.16z"/>
 <path d="m690.94 600c0 32.656-17.422 62.832-45.703 79.16s-63.125 16.328-91.406 0-45.703-46.504-45.703-79.16 17.422-62.832 45.703-79.16 63.125-16.328 91.406 0 45.703 46.504 45.703 79.16z"/>
 <path d="m690.94 600c0 32.656-17.422 62.832-45.703 79.16s-63.125 16.328-91.406 0-45.703-46.504-45.703-79.16 17.422-62.832 45.703-79.16 63.125-16.328 91.406 0 45.703 46.504 45.703 79.16z"/>
 <path d="m690.94 600c0 32.656-17.422 62.832-45.703 79.16s-63.125 16.328-91.406 0-45.703-46.504-45.703-79.16 17.422-62.832 45.703-79.16 63.125-16.328 91.406 0 45.703 46.504 45.703 79.16z"/>
 <path d="m690.94 600c0 32.656-17.422 62.832-45.703 79.16s-63.125 16.328-91.406 0-45.703-46.504-45.703-79.16 17.422-62.832 45.703-79.16 63.125-16.328 91.406 0 45.703 46.504 45.703 79.16z"/>
 <path d="m690.94 600c0 32.656-17.422 62.832-45.703 79.16s-63.125 16.328-91.406 0-45.703-46.504-45.703-79.16 17.422-62.832 45.703-79.16 63.125-16.328 91.406 0 45.703 46.504 45.703 79.16z"/>
 <path d="m690.94 600c0 32.656-17.422 62.832-45.703 79.16s-63.125 16.328-91.406 0-45.703-46.504-45.703-79.16 17.422-62.832 45.703-79.16 63.125-16.328 91.406 0 45.703 46.504 45.703 79.16z"/>
 <path d="m690.94 600c0 32.656-17.422 62.832-45.703 79.16s-63.125 16.328-91.406 0-45.703-46.504-45.703-79.16 17.422-62.832 45.703-79.16 63.125-16.328 91.406 0 45.703 46.504 45.703 79.16z"/>
 <path d="m690.94 600c0 32.656-17.422 62.832-45.703 79.16s-63.125 16.328-91.406 0-45.703-46.504-45.703-79.16 17.422-62.832 45.703-79.16 63.125-16.328 91.406 0 45.703 46.504 45.703 79.16z"/>
 <path d="m690.94 600c0 32.656-17.422 62.832-45.703 79.16s-63.125 16.328-91.406 0-45.703-46.504-45.703-79.16 17.422-62.832 45.703-79.16 63.125-16.328 91.406 0 45.703 46.504 45.703 79.16z"/>
 <path d="m690.94 600c0 32.656-17.422 62.832-45.703 79.16s-63.125 16.328-91.406 0-45.703-46.504-45.703-79.16 17.422-62.832 45.703-79.16 63.125-16.328 91.406 0 45.703 46.504 45.703 79.16z"/>
 <path d="m690.94 600c0 32.656-17.422 62.832-45.703 79.16s-63.125 16.328-91.406 0-45.703-46.504-45.703-79.16 17.422-62.832 45.703-79.16 63.125-16.328 91.406 0 45.703 46.504 45.703 79.16z"/>
 <path d="m690.94 600c0 32.656-17.422 62.832-45.703 79.16s-63.125 16.328-91.406 0-45.703-46.504-45.703-79.16 17.422-62.832 45.703-79.16 63.125-16.328 91.406 0 45.703 46.504 45.703 79.16z"/>
 <path d="m690.94 600c0 32.656-17.422 62.832-45.703 79.16s-63.125 16.328-91.406 0-45.703-46.504-45.703-79.16 17.422-62.832 45.703-79.16 63.125-16.328 91.406 0 45.703 46.504 45.703 79.16z"/>
 <path d="m690.94 600c0 32.656-17.422 62.832-45.703 79.16s-63.125 16.328-91.406 0-45.703-46.504-45.703-79.16 17.422-62.832 45.703-79.16 63.125-16.328 91.406 0 45.703 46.504 45.703 79.16z"/>
 <path d="m690.94 600c0 32.656-17.422 62.832-45.703 79.16s-63.125 16.328-91.406 0-45.703-46.504-45.703-79.16 17.422-62.832 45.703-79.16 63.125-16.328 91.406 0 45.703 46.504 45.703 79.16z"/>
 <path d="m690.94 600c0 32.656-17.422 62.832-45.703 79.16s-63.125 16.328-91.406 0-45.703-46.504-45.703-79.16 17.422-62.832 45.703-79.16 63.125-16.328 91.406 0 45.703 46.504 45.703 79.16z"/>
 <path d="m690.94 600c0 32.656-17.422 62.832-45.703 79.16s-63.125 16.328-91.406 0-45.703-46.504-45.703-79.16 17.422-62.832 45.703-79.16 63.125-16.328 91.406 0 45.703 46.504 45.703 79.16z"/>
 <path d="m690.94 600c0 32.656-17.422 62.832-45.703 79.16s-63.125 16.328-91.406 0-45.703-46.504-45.703-79.16 17.422-62.832 45.703-79.16 63.125-16.328 91.406 0 45.703 46.504 45.703 79.16z"/>
 <path d="m690.94 600c0 32.656-17.422 62.832-45.703 79.16s-63.125 16.328-91.406 0-45.703-46.504-45.703-79.16 17.422-62.832 45.703-79.16 63.125-16.328 91.406 0 45.703 46.504 45.703 79.16z"/>
 <path d="m690.94 600c0 32.656-17.422 62.832-45.703 79.16s-63.125 16.328-91.406 0-45.703-46.504-45.703-79.16 17.422-62.832 45.703-79.16 63.125-16.328 91.406 0 45.703 46.504 45.703 79.16z"/>
 <path d="m690.94 600c0 32.656-17.422 62.832-45.703 79.16s-63.125 16.328-91.406 0-45.703-46.504-45.703-79.16 17.422-62.832 45.703-79.16 63.125-16.328 91.406 0 45.703 46.504 45.703 79.16z"/>
 <path d="m690.94 600c0 32.656-17.422 62.832-45.703 79.16s-63.125 16.328-91.406 0-45.703-46.504-45.703-79.16 17.422-62.832 45.703-79.16 63.125-16.328 91.406 0 45.703 46.504 45.703 79.16z"/>
 <path d="m690.94 600c0 32.656-17.422 62.832-45.703 79.16s-63.125 16.328-91.406 0-45.703-46.504-45.703-79.16 17.422-62.832 45.703-79.16 63.125-16.328 91.406 0 45.703 46.504 45.703 79.16z"/>
 <path d="m690.94 600c0 32.656-17.422 62.832-45.703 79.16s-63.125 16.328-91.406 0-45.703-46.504-45.703-79.16 17.422-62.832 45.703-79.16 63.125-16.328 91.406 0 45.703 46.504 45.703 79.16z"/>
 <path d="m690.94 600c0 32.656-17.422 62.832-45.703 79.16s-63.125 16.328-91.406 0-45.703-46.504-45.703-79.16 17.422-62.832 45.703-79.16 63.125-16.328 91.406 0 45.703 46.504 45.703 79.16z"/>
 <path d="m690.94 600c0 32.656-17.422 62.832-45.703 79.16s-63.125 16.328-91.406 0-45.703-46.504-45.703-79.16 17.422-62.832 45.703-79.16 63.125-16.328 91.406 0 45.703 46.504 45.703 79.16z"/>
 <path d="m690.94 600c0 32.656-17.422 62.832-45.703 79.16s-63.125 16.328-91.406 0-45.703-46.504-45.703-79.16 17.422-62.832 45.703-79.16 63.125-16.328 91.406 0 45.703 46.504 45.703 79.16z"/>
 <path d="m690.94 600c0 32.656-17.422 62.832-45.703 79.16s-63.125 16.328-91.406 0-45.703-46.504-45.703-79.16 17.422-62.832 45.703-79.16 63.125-16.328 91.406 0 45.703 46.504 45.703 79.16z"/>
 <path d="m690.94 600c0 32.656-17.422 62.832-45.703 79.16s-63.125 16.328-91.406 0-45.703-46.504-45.703-79.16 17.422-62.832 45.703-79.16 63.125-16.328 91.406 0 45.703 46.504 45.703 79.16z"/>
 <path d="m690.94 600c0 32.656-17.422 62.832-45.703 79.16s-63.125 16.328-91.406 0-45.703-46.504-45.703-79.16 17.422-62.832 45.703-79.16 63.125-16.328 91.406 0 45.703 46.504 45.703 79.16z"/>
 <path d="m690.94 600c0 32.656-17.422 62.832-45.703 79.16s-63.125 16.328-91.406 0-45.703-46.504-45.703-79.16 17.422-62.832 45.703-79.16 63.125-16.328 91.406 0 45.703 46.504 45.703 79.16z"/>
 <path d="m690.94 600c0 32.656-17.422 62.832-45.703 79.16s-63.125 16.328-91.406 0-45.703-46.504-45.703-79.16 17.422-62.832 45.703-79.16 63.125-16.328 91.406 0 45.703 46.504 45.703 79.16z"/>
 <path d="m690.94 600c0 32.656-17.422 62.832-45.703 79.16s-63.125 16.328-91.406 0-45.703-46.504-45.703-79.16 17.422-62.832 45.703-79.16 63.125-16.328 91.406 0 45.703 46.504 45.703 79.16z"/>
 <path d="m690.94 600c0 32.656-17.422 62.832-45.703 79.16s-63.125 16.328-91.406 0-45.703-46.504-45.703-79.16 17.422-62.832 45.703-79.16 63.125-16.328 91.406 0 45.703 46.504 45.703 79.16z"/>
 <path d="m690.94 600c0 32.656-17.422 62.832-45.703 79.16s-63.125 16.328-91.406 0-45.703-46.504-45.703-79.16 17.422-62.832 45.703-79.16 63.125-16.328 91.406 0 45.703 46.504 45.703 79.16z"/>
 <path d="m690.94 600c0 32.656-17.422 62.832-45.703 79.16s-63.125 16.328-91.406 0-45.703-46.504-45.703-79.16 17.422-62.832 45.703-79.16 63.125-16.328 91.406 0 45.703 46.504 45.703 79.16z"/>
 <path d="m690.94 600c0 32.656-17.422 62.832-45.703 79.16s-63.125 16.328-91.406 0-45.703-46.504-45.703-79.16 17.422-62.832 45.703-79.16 63.125-16.328 91.406 0 45.703 46.504 45.703 79.16z"/>
 <path d="m690.94 600c0 32.656-17.422 62.832-45.703 79.16s-63.125 16.328-91.406 0-45.703-46.504-45.703-79.16 17.422-62.832 45.703-79.16 63.125-16.328 91.406 0 45.703 46.504 45.703 79.16z"/>
 <path d="m690.94 600c0 32.656-17.422 62.832-45.703 79.16s-63.125 16.328-91.406 0-45.703-46.504-45.703-79.16 17.422-62.832 45.703-79.16 63.125-16.328 91.406 0 45.703 46.504 45.703 79.16z"/>
 <path d="m690.94 600c0 32.656-17.422 62.832-45.703 79.16s-63.125 16.328-91.406 0-45.703-46.504-45.703-79.16 17.422-62.832 45.703-79.16 63.125-16.328 91.406 0 45.703 46.504 45.703 79.16z"/>
 <path d="m690.94 600c0 32.656-17.422 62.832-45.703 79.16s-63.125 16.328-91.406 0-45.703-46.504-45.703-79.16 17.422-62.832 45.703-79.16 63.125-16.328 91.406 0 45.703 46.504 45.703 79.16z"/>
 <path d="m690.94 600c0 32.656-17.422 62.832-45.703 79.16s-63.125 16.328-91.406 0-45.703-46.504-45.703-79.16 17.422-62.832 45.703-79.16 63.125-16.328 91.406 0 45.703 46.504 45.703 79.16z"/>
 <path d="m690.94 600c0 32.656-17.422 62.832-45.703 79.16s-63.125 16.328-91.406 0-45.703-46.504-45.703-79.16 17.422-62.832 45.703-79.16 63.125-16.328 91.406 0 45.703 46.504 45.703 79.16z"/>
 <path d="m690.94 600c0 32.656-17.422 62.832-45.703 79.16s-63.125 16.328-91.406 0-45.703-46.504-45.703-79.16 17.422-62.832 45.703-79.16 63.125-16.328 91.406 0 45.703 46.504 45.703 79.16z"/>
 <path d="m690.94 600c0 32.656-17.422 62.832-45.703 79.16s-63.125 16.328-91.406 0-45.703-46.504-45.703-79.16 17.422-62.832 45.703-79.16 63.125-16.328 91.406 0 45.703 46.504 45.703 79.16z"/>
 <path d="m690.94 600c0 32.656-17.422 62.832-45.703 79.16s-63.125 16.328-91.406 0-45.703-46.504-45.703-79.16 17.422-62.832 45.703-79.16 63.125-16.328 91.406 0 45.703 46.504 45.703 79.16z"/>
 <path d="m690.94 600c0 32.656-17.422 62.832-45.703 79.16s-63.125 16.328-91.406 0-45.703-46.504-45.703-79.16 17.422-62.832 45.703-79.16 63.125-16.328 91.406 0 45.703 46.504 45.703 79.16z"/>
 <path d="m690.94 600c0 32.656-17.422 62.832-45.703 79.16s-63.125 16.328-91.406 0-45.703-46.504-45.703-79.16 17.422-62.832 45.703-79.16 63.125-16.328 91.406 0 45.703 46.504 45.703 79.16z"/>
 <path d="m690.94 600c0 32.656-17.422 62.832-45.703 79.16s-63.125 16.328-91.406 0-45.703-46.504-45.703-79.16 17.422-62.832 45.703-79.16 63.125-16.328 91.406 0 45.703 46.504 45.703 79.16z"/>
 <path d="m690.94 600c0 32.656-17.422 62.832-45.703 79.16s-63.125 16.328-91.406 0-45.703-46.504-45.703-79.16 17.422-62.832 45.703-79.16 63.125-16.328 91.406 0 45.703 46.504 45.703 79.16z"/>
 <path d="m690.94 600c0 32.656-17.422 62.832-45.703 79.16s-63.125 16.328-91.406 0-45.703-46.504-45.703-79.16 17.422-62.832 45.703-79.16 63.125-16.328 91.406 0 45.703 46.504 45.703 79.16z"/>
 <path d="m690.94 600c0 32.656-17.422 62.832-45.703 79.16s-63.125 16.328-91.406 0-45.703-46.504-45.703-79.16 17.422-62.832 45.703-79.16 63.125-16.328 91.406 0 45.703 46.504 45.703 79.16z"/>
 <path d="m690.94 600c0 32.656-17.422 62.832-45.703 79.16s-63.125 16.328-91.406 0-45.703-46.504-45.703-79.16 17.422-62.832 45.703-79.16 63.125-16.328 91.406 0 45.703 46.504 45.703 79.16z"/>
 <path d="m690.94 600c0 32.656-17.422 62.832-45.703 79.16s-63.125 16.328-91.406 0-45.703-46.504-45.703-79.16 17.422-62.832 45.703-79.16 63.125-16.328 91.406 0 45.703 46.504 45.703 79.16z"/>
 <path d="m690.94 600c0 32.656-17.422 62.832-45.703 79.16s-63.125 16.328-91.406 0-45.703-46.504-45.703-79.16 17.422-62.832 45.703-79.16 63.125-16.328 91.406 0 45.703 46.504 45.703 79.16z"/>
 <path d="m690.94 600c0 32.656-17.422 62.832-45.703 79.16s-63.125 16.328-91.406 0-45.703-46.504-45.703-79.16 17.422-62.832 45.703-79.16 63.125-16.328 91.406 0 45.703 46.504 45.703 79.16z"/>
 <path d="m690.94 600c0 32.656-17.422 62.832-45.703 79.16s-63.125 16.328-91.406 0-45.703-46.504-45.703-79.16 17.422-62.832 45.703-79.16 63.125-16.328 91.406 0 45.703 46.504 45.703 79.16z"/>
 <path d="m690.94 600c0 32.656-17.422 62.832-45.703 79.16s-63.125 16.328-91.406 0-45.703-46.504-45.703-79.16 17.422-62.832 45.703-79.16 63.125-16.328 91.406 0 45.703 46.504 45.703 79.16z"/>
 <path d="m690.94 600c0 32.656-17.422 62.832-45.703 79.16s-63.125 16.328-91.406 0-45.703-46.504-45.703-79.16 17.422-62.832 45.703-79.16 63.125-16.328 91.406 0 45.703 46.504 45.703 79.16z"/>
 <path d="m690.94 600c0 32.656-17.422 62.832-45.703 79.16s-63.125 16.328-91.406 0-45.703-46.504-45.703-79.16 17.422-62.832 45.703-79.16 63.125-16.328 91.406 0 45.703 46.504 45.703 79.16z"/>
 <path d="m690.94 600c0 32.656-17.422 62.832-45.703 79.16s-63.125 16.328-91.406 0-45.703-46.504-45.703-79.16 17.422-62.832 45.703-79.16 63.125-16.328 91.406 0 45.703 46.504 45.703 79.16z"/>
 <path d="m690.94 600c0 32.656-17.422 62.832-45.703 79.16s-63.125 16.328-91.406 0-45.703-46.504-45.703-79.16 17.422-62.832 45.703-79.16 63.125-16.328 91.406 0 45.703 46.504 45.703 79.16z"/>
 <path d="m690.94 600c0 32.656-17.422 62.832-45.703 79.16s-63.125 16.328-91.406 0-45.703-46.504-45.703-79.16 17.422-62.832 45.703-79.16 63.125-16.328 91.406 0 45.703 46.504 45.703 79.16z"/>
 <path d="m690.94 600c0 32.656-17.422 62.832-45.703 79.16s-63.125 16.328-91.406 0-45.703-46.504-45.703-79.16 17.422-62.832 45.703-79.16 63.125-16.328 91.406 0 45.703 46.504 45.703 79.16z"/>
 <path d="m690.94 600c0 32.656-17.422 62.832-45.703 79.16s-63.125 16.328-91.406 0-45.703-46.504-45.703-79.16 17.422-62.832 45.703-79.16 63.125-16.328 91.406 0 45.703 46.504 45.703 79.16z"/>
 <path d="m690.94 600c0 32.656-17.422 62.832-45.703 79.16s-63.125 16.328-91.406 0-45.703-46.504-45.703-79.16 17.422-62.832 45.703-79.16 63.125-16.328 91.406 0 45.703 46.504 45.703 79.16z"/>
 <path d="m690.94 600c0 32.656-17.422 62.832-45.703 79.16s-63.125 16.328-91.406 0-45.703-46.504-45.703-79.16 17.422-62.832 45.703-79.16 63.125-16.328 91.406 0 45.703 46.504 45.703 79.16z"/>
 <path d="m690.94 600c0 32.656-17.422 62.832-45.703 79.16s-63.125 16.328-91.406 0-45.703-46.504-45.703-79.16 17.422-62.832 45.703-79.16 63.125-16.328 91.406 0 45.703 46.504 45.703 79.16z"/>
 <path d="m690.94 600c0 32.656-17.422 62.832-45.703 79.16s-63.125 16.328-91.406 0-45.703-46.504-45.703-79.16 17.422-62.832 45.703-79.16 63.125-16.328 91.406 0 45.703 46.504 45.703 79.16z"/>
 <path d="m690.94 600c0 32.656-17.422 62.832-45.703 79.16s-63.125 16.328-91.406 0-45.703-46.504-45.703-79.16 17.422-62.832 45.703-79.16 63.125-16.328 91.406 0 45.703 46.504 45.703 79.16z"/>
 <path d="m690.94 600c0 32.656-17.422 62.832-45.703 79.16s-63.125 16.328-91.406 0-45.703-46.504-45.703-79.16 17.422-62.832 45.703-79.16 63.125-16.328 91.406 0 45.703 46.504 45.703 79.16z"/>
 <path d="m690.94 600c0 32.656-17.422 62.832-45.703 79.16s-63.125 16.328-91.406 0-45.703-46.504-45.703-79.16 17.422-62.832 45.703-79.16 63.125-16.328 91.406 0 45.703 46.504 45.703 79.16z"/>
 <path d="m690.94 600c0 32.656-17.422 62.832-45.703 79.16s-63.125 16.328-91.406 0-45.703-46.504-45.703-79.16 17.422-62.832 45.703-79.16 63.125-16.328 91.406 0 45.703 46.504 45.703 79.16z"/>
 <path d="m690.94 600c0 32.656-17.422 62.832-45.703 79.16s-63.125 16.328-91.406 0-45.703-46.504-45.703-79.16 17.422-62.832 45.703-79.16 63.125-16.328 91.406 0 45.703 46.504 45.703 79.16z"/>
 <path d="m690.94 600c0 32.656-17.422 62.832-45.703 79.16s-63.125 16.328-91.406 0-45.703-46.504-45.703-79.16 17.422-62.832 45.703-79.16 63.125-16.328 91.406 0 45.703 46.504 45.703 79.16z"/>
 <path d="m690.94 600c0 32.656-17.422 62.832-45.703 79.16s-63.125 16.328-91.406 0-45.703-46.504-45.703-79.16 17.422-62.832 45.703-79.16 63.125-16.328 91.406 0 45.703 46.504 45.703 79.16z"/>
 <path d="m690.94 600c0 32.656-17.422 62.832-45.703 79.16s-63.125 16.328-91.406 0-45.703-46.504-45.703-79.16 17.422-62.832 45.703-79.16 63.125-16.328 91.406 0 45.703 46.504 45.703 79.16z"/>
 <path d="m690.94 600c0 32.656-17.422 62.832-45.703 79.16s-63.125 16.328-91.406 0-45.703-46.504-45.703-79.16 17.422-62.832 45.703-79.16 63.125-16.328 91.406 0 45.703 46.504 45.703 79.16z"/>
 <path d="m690.94 600c0 32.656-17.422 62.832-45.703 79.16s-63.125 16.328-91.406 0-45.703-46.504-45.703-79.16 17.422-62.832 45.703-79.16 63.125-16.328 91.406 0 45.703 46.504 45.703 79.16z"/>
 <path d="m690.94 600c0 32.656-17.422 62.832-45.703 79.16s-63.125 16.328-91.406 0-45.703-46.504-45.703-79.16 17.422-62.832 45.703-79.16 63.125-16.328 91.406 0 45.703 46.504 45.703 79.16z"/>
 <path d="m690.94 600c0 32.656-17.422 62.832-45.703 79.16s-63.125 16.328-91.406 0-45.703-46.504-45.703-79.16 17.422-62.832 45.703-79.16 63.125-16.328 91.406 0 45.703 46.504 45.703 79.16z"/>
 <path d="m690.94 600c0 32.656-17.422 62.832-45.703 79.16s-63.125 16.328-91.406 0-45.703-46.504-45.703-79.16 17.422-62.832 45.703-79.16 63.125-16.328 91.406 0 45.703 46.504 45.703 79.16z"/>
 <path d="m690.94 600c0 32.656-17.422 62.832-45.703 79.16s-63.125 16.328-91.406 0-45.703-46.504-45.703-79.16 17.422-62.832 45.703-79.16 63.125-16.328 91.406 0 45.703 46.504 45.703 79.16z"/>
 <path d="m690.94 600c0 32.656-17.422 62.832-45.703 79.16s-63.125 16.328-91.406 0-45.703-46.504-45.703-79.16 17.422-62.832 45.703-79.16 63.125-16.328 91.406 0 45.703 46.504 45.703 79.16z"/>
 <path d="m690.94 600c0 32.656-17.422 62.832-45.703 79.16s-63.125 16.328-91.406 0-45.703-46.504-45.703-79.16 17.422-62.832 45.703-79.16 63.125-16.328 91.406 0 45.703 46.504 45.703 79.16z"/>
 <path d="m690.94 600c0 32.656-17.422 62.832-45.703 79.16s-63.125 16.328-91.406 0-45.703-46.504-45.703-79.16 17.422-62.832 45.703-79.16 63.125-16.328 91.406 0 45.703 46.504 45.703 79.16z"/>
 <path d="m690.94 600c0 32.656-17.422 62.832-45.703 79.16s-63.125 16.328-91.406 0-45.703-46.504-45.703-79.16 17.422-62.832 45.703-79.16 63.125-16.328 91.406 0 45.703 46.504 45.703 79.16z"/>
 <path d="m690.94 600c0 32.656-17.422 62.832-45.703 79.16s-63.125 16.328-91.406 0-45.703-46.504-45.703-79.16 17.422-62.832 45.703-79.16 63.125-16.328 91.406 0 45.703 46.504 45.703 79.16z"/>
 <path d="m690.94 600c0 32.656-17.422 62.832-45.703 79.16s-63.125 16.328-91.406 0-45.703-46.504-45.703-79.16 17.422-62.832 45.703-79.16 63.125-16.328 91.406 0 45.703 46.504 45.703 79.16z"/>
 <path d="m690.94 600c0 32.656-17.422 62.832-45.703 79.16s-63.125 16.328-91.406 0-45.703-46.504-45.703-79.16 17.422-62.832 45.703-79.16 63.125-16.328 91.406 0 45.703 46.504 45.703 79.16z"/>
 <path d="m690.94 600c0 32.656-17.422 62.832-45.703 79.16s-63.125 16.328-91.406 0-45.703-46.504-45.703-79.16 17.422-62.832 45.703-79.16 63.125-16.328 91.406 0 45.703 46.504 45.703 79.16z"/>
 <path d="m690.94 600c0 32.656-17.422 62.832-45.703 79.16s-63.125 16.328-91.406 0-45.703-46.504-45.703-79.16 17.422-62.832 45.703-79.16 63.125-16.328 91.406 0 45.703 46.504 45.703 79.16z"/>
 <path d="m690.94 600c0 32.656-17.422 62.832-45.703 79.16s-63.125 16.328-91.406 0-45.703-46.504-45.703-79.16 17.422-62.832 45.703-79.16 63.125-16.328 91.406 0 45.703 46.504 45.703 79.16z"/>
 <path d="m690.94 600c0 32.656-17.422 62.832-45.703 79.16s-63.125 16.328-91.406 0-45.703-46.504-45.703-79.16 17.422-62.832 45.703-79.16 63.125-16.328 91.406 0 45.703 46.504 45.703 79.16z"/>
 <path d="m690.94 600c0 32.656-17.422 62.832-45.703 79.16s-63.125 16.328-91.406 0-45.703-46.504-45.703-79.16 17.422-62.832 45.703-79.16 63.125-16.328 91.406 0 45.703 46.504 45.703 79.16z"/>
 <path d="m690.94 600c0 32.656-17.422 62.832-45.703 79.16s-63.125 16.328-91.406 0-45.703-46.504-45.703-79.16 17.422-62.832 45.703-79.16 63.125-16.328 91.406 0 45.703 46.504 45.703 79.16z"/>
 <path d="m690.94 600c0 32.656-17.422 62.832-45.703 79.16s-63.125 16.328-91.406 0-45.703-46.504-45.703-79.16 17.422-62.832 45.703-79.16 63.125-16.328 91.406 0 45.703 46.504 45.703 79.16z"/>
 <path d="m690.94 600c0 32.656-17.422 62.832-45.703 79.16s-63.125 16.328-91.406 0-45.703-46.504-45.703-79.16 17.422-62.832 45.703-79.16 63.125-16.328 91.406 0 45.703 46.504 45.703 79.16z"/>
 <path d="m690.94 600c0 32.656-17.422 62.832-45.703 79.16s-63.125 16.328-91.406 0-45.703-46.504-45.703-79.16 17.422-62.832 45.703-79.16 63.125-16.328 91.406 0 45.703 46.504 45.703 79.16z"/>
 <path d="m690.94 600c0 32.656-17.422 62.832-45.703 79.16s-63.125 16.328-91.406 0-45.703-46.504-45.703-79.16 17.422-62.832 45.703-79.16 63.125-16.328 91.406 0 45.703 46.504 45.703 79.16z"/>
 <path d="m690.94 600c0 32.656-17.422 62.832-45.703 79.16s-63.125 16.328-91.406 0-45.703-46.504-45.703-79.16 17.422-62.832 45.703-79.16 63.125-16.328 91.406 0 45.703 46.504 45.703 79.16z"/>
 <path d="m690.94 600c0 32.656-17.422 62.832-45.703 79.16s-63.125 16.328-91.406 0-45.703-46.504-45.703-79.16 17.422-62.832 45.703-79.16 63.125-16.328 91.406 0 45.703 46.504 45.703 79.16z"/>
 <path d="m690.94 600c0 32.656-17.422 62.832-45.703 79.16s-63.125 16.328-91.406 0-45.703-46.504-45.703-79.16 17.422-62.832 45.703-79.16 63.125-16.328 91.406 0 45.703 46.504 45.703 79.16z"/>
 <path d="m690.94 600c0 32.656-17.422 62.832-45.703 79.16s-63.125 16.328-91.406 0-45.703-46.504-45.703-79.16 17.422-62.832 45.703-79.16 63.125-16.328 91.406 0 45.703 46.504 45.703 79.16z"/>
 <path d="m690.94 600c0 32.656-17.422 62.832-45.703 79.16s-63.125 16.328-91.406 0-45.703-46.504-45.703-79.16 17.422-62.832 45.703-79.16 63.125-16.328 91.406 0 45.703 46.504 45.703 79.16z"/>
 <path d="m690.94 600c0 32.656-17.422 62.832-45.703 79.16s-63.125 16.328-91.406 0-45.703-46.504-45.703-79.16 17.422-62.832 45.703-79.16 63.125-16.328 91.406 0 45.703 46.504 45.703 79.16z"/>
 <path d="m690.94 600c0 32.656-17.422 62.832-45.703 79.16s-63.125 16.328-91.406 0-45.703-46.504-45.703-79.16 17.422-62.832 45.703-79.16 63.125-16.328 91.406 0 45.703 46.504 45.703 79.16z"/>
 <path d="m690.94 600c0 32.656-17.422 62.832-45.703 79.16s-63.125 16.328-91.406 0-45.703-46.504-45.703-79.16 17.422-62.832 45.703-79.16 63.125-16.328 91.406 0 45.703 46.504 45.703 79.16z"/>
 <path d="m690.94 600c0 32.656-17.422 62.832-45.703 79.16s-63.125 16.328-91.406 0-45.703-46.504-45.703-79.16 17.422-62.832 45.703-79.16 63.125-16.328 91.406 0 45.703 46.504 45.703 79.16z"/>
 <path d="m690.94 600c0 32.656-17.422 62.832-45.703 79.16s-63.125 16.328-91.406 0-45.703-46.504-45.703-79.16 17.422-62.832 45.703-79.16 63.125-16.328 91.406 0 45.703 46.504 45.703 79.16z"/>
 <path d="m690.94 600c0 32.656-17.422 62.832-45.703 79.16s-63.125 16.328-91.406 0-45.703-46.504-45.703-79.16 17.422-62.832 45.703-79.16 63.125-16.328 91.406 0 45.703 46.504 45.703 79.16z"/>
 <path d="m690.94 600c0 32.656-17.422 62.832-45.703 79.16s-63.125 16.328-91.406 0-45.703-46.504-45.703-79.16 17.422-62.832 45.703-79.16 63.125-16.328 91.406 0 45.703 46.504 45.703 79.16z"/>
 <path d="m690.94 600c0 32.656-17.422 62.832-45.703 79.16s-63.125 16.328-91.406 0-45.703-46.504-45.703-79.16 17.422-62.832 45.703-79.16 63.125-16.328 91.406 0 45.703 46.504 45.703 79.16z"/>
 <path d="m690.94 600c0 32.656-17.422 62.832-45.703 79.16s-63.125 16.328-91.406 0-45.703-46.504-45.703-79.16 17.422-62.832 45.703-79.16 63.125-16.328 91.406 0 45.703 46.504 45.703 79.16z"/>
 <path d="m690.94 600c0 32.656-17.422 62.832-45.703 79.16s-63.125 16.328-91.406 0-45.703-46.504-45.703-79.16 17.422-62.832 45.703-79.16 63.125-16.328 91.406 0 45.703 46.504 45.703 79.16z"/>
 <path d="m690.94 600c0 32.656-17.422 62.832-45.703 79.16s-63.125 16.328-91.406 0-45.703-46.504-45.703-79.16 17.422-62.832 45.703-79.16 63.125-16.328 91.406 0 45.703 46.504 45.703 79.16z"/>
 <path d="m690.94 600c0 32.656-17.422 62.832-45.703 79.16s-63.125 16.328-91.406 0-45.703-46.504-45.703-79.16 17.422-62.832 45.703-79.16 63.125-16.328 91.406 0 45.703 46.504 45.703 79.16z"/>
 <path d="m690.94 600c0 32.656-17.422 62.832-45.703 79.16s-63.125 16.328-91.406 0-45.703-46.504-45.703-79.16 17.422-62.832 45.703-79.16 63.125-16.328 91.406 0 45.703 46.504 45.703 79.16z"/>
 <path d="m690.94 600c0 32.656-17.422 62.832-45.703 79.16s-63.125 16.328-91.406 0-45.703-46.504-45.703-79.16 17.422-62.832 45.703-79.16 63.125-16.328 91.406 0 45.703 46.504 45.703 79.16z"/>
 <path d="m690.94 600c0 32.656-17.422 62.832-45.703 79.16s-63.125 16.328-91.406 0-45.703-46.504-45.703-79.16 17.422-62.832 45.703-79.16 63.125-16.328 91.406 0 45.703 46.504 45.703 79.16z"/>
 <path d="m690.94 600c0 32.656-17.422 62.832-45.703 79.16s-63.125 16.328-91.406 0-45.703-46.504-45.703-79.16 17.422-62.832 45.703-79.16 63.125-16.328 91.406 0 45.703 46.504 45.703 79.16z"/>
 <path d="m690.94 600c0 32.656-17.422 62.832-45.703 79.16s-63.125 16.328-91.406 0-45.703-46.504-45.703-79.16 17.422-62.832 45.703-79.16 63.125-16.328 91.406 0 45.703 46.504 45.703 79.16z"/>
 <path d="m690.94 600c0 32.656-17.422 62.832-45.703 79.16s-63.125 16.328-91.406 0-45.703-46.504-45.703-79.16 17.422-62.832 45.703-79.16 63.125-16.328 91.406 0 45.703 46.504 45.703 79.16z"/>
 <path d="m690.94 600c0 32.656-17.422 62.832-45.703 79.16s-63.125 16.328-91.406 0-45.703-46.504-45.703-79.16 17.422-62.832 45.703-79.16 63.125-16.328 91.406 0 45.703 46.504 45.703 79.16z"/>
 <path d="m690.94 600c0 32.656-17.422 62.832-45.703 79.16s-63.125 16.328-91.406 0-45.703-46.504-45.703-79.16 17.422-62.832 45.703-79.16 63.125-16.328 91.406 0 45.703 46.504 45.703 79.16z"/>
 <path d="m690.94 600c0 32.656-17.422 62.832-45.703 79.16s-63.125 16.328-91.406 0-45.703-46.504-45.703-79.16 17.422-62.832 45.703-79.16 63.125-16.328 91.406 0 45.703 46.504 45.703 79.16z"/>
 <path d="m690.94 600c0 32.656-17.422 62.832-45.703 79.16s-63.125 16.328-91.406 0-45.703-46.504-45.703-79.16 17.422-62.832 45.703-79.16 63.125-16.328 91.406 0 45.703 46.504 45.703 79.16z"/>
 <path d="m690.94 600c0 32.656-17.422 62.832-45.703 79.16s-63.125 16.328-91.406 0-45.703-46.504-45.703-79.16 17.422-62.832 45.703-79.16 63.125-16.328 91.406 0 45.703 46.504 45.703 79.16z"/>
 <path d="m690.94 600c0 32.656-17.422 62.832-45.703 79.16s-63.125 16.328-91.406 0-45.703-46.504-45.703-79.16 17.422-62.832 45.703-79.16 63.125-16.328 91.406 0 45.703 46.504 45.703 79.16z"/>
 <path d="m690.94 600c0 32.656-17.422 62.832-45.703 79.16s-63.125 16.328-91.406 0-45.703-46.504-45.703-79.16 17.422-62.832 45.703-79.16 63.125-16.328 91.406 0 45.703 46.504 45.703 79.16z"/>
 <path d="m690.94 600c0 32.656-17.422 62.832-45.703 79.16s-63.125 16.328-91.406 0-45.703-46.504-45.703-79.16 17.422-62.832 45.703-79.16 63.125-16.328 91.406 0 45.703 46.504 45.703 79.16z"/>
 <path d="m690.94 600c0 32.656-17.422 62.832-45.703 79.16s-63.125 16.328-91.406 0-45.703-46.504-45.703-79.16 17.422-62.832 45.703-79.16 63.125-16.328 91.406 0 45.703 46.504 45.703 79.16z"/>
 <path d="m690.94 600c0 32.656-17.422 62.832-45.703 79.16s-63.125 16.328-91.406 0-45.703-46.504-45.703-79.16 17.422-62.832 45.703-79.16 63.125-16.328 91.406 0 45.703 46.504 45.703 79.16z"/>
 <path d="m690.94 600c0 32.656-17.422 62.832-45.703 79.16s-63.125 16.328-91.406 0-45.703-46.504-45.703-79.16 17.422-62.832 45.703-79.16 63.125-16.328 91.406 0 45.703 46.504 45.703 79.16z"/>
 <path d="m690.94 600c0 32.656-17.422 62.832-45.703 79.16s-63.125 16.328-91.406 0-45.703-46.504-45.703-79.16 17.422-62.832 45.703-79.16 63.125-16.328 91.406 0 45.703 46.504 45.703 79.16z"/>
 <path d="m690.94 600c0 32.656-17.422 62.832-45.703 79.16s-63.125 16.328-91.406 0-45.703-46.504-45.703-79.16 17.422-62.832 45.703-79.16 63.125-16.328 91.406 0 45.703 46.504 45.703 79.16z"/>
 <path d="m690.94 600c0 32.656-17.422 62.832-45.703 79.16s-63.125 16.328-91.406 0-45.703-46.504-45.703-79.16 17.422-62.832 45.703-79.16 63.125-16.328 91.406 0 45.703 46.504 45.703 79.16z"/>
 <path d="m690.94 600c0 32.656-17.422 62.832-45.703 79.16s-63.125 16.328-91.406 0-45.703-46.504-45.703-79.16 17.422-62.832 45.703-79.16 63.125-16.328 91.406 0 45.703 46.504 45.703 79.16z"/>
 <path d="m690.94 600c0 32.656-17.422 62.832-45.703 79.16s-63.125 16.328-91.406 0-45.703-46.504-45.703-79.16 17.422-62.832 45.703-79.16 63.125-16.328 91.406 0 45.703 46.504 45.703 79.16z"/>
 <path d="m690.94 600c0 32.656-17.422 62.832-45.703 79.16s-63.125 16.328-91.406 0-45.703-46.504-45.703-79.16 17.422-62.832 45.703-79.16 63.125-16.328 91.406 0 45.703 46.504 45.703 79.16z"/>
 <path d="m690.94 600c0 32.656-17.422 62.832-45.703 79.16s-63.125 16.328-91.406 0-45.703-46.504-45.703-79.16 17.422-62.832 45.703-79.16 63.125-16.328 91.406 0 45.703 46.504 45.703 79.16z"/>
 <path d="m690.94 600c0 32.656-17.422 62.832-45.703 79.16s-63.125 16.328-91.406 0-45.703-46.504-45.703-79.16 17.422-62.832 45.703-79.16 63.125-16.328 91.406 0 45.703 46.504 45.703 79.16z"/>
 <path d="m690.94 600c0 32.656-17.422 62.832-45.703 79.16s-63.125 16.328-91.406 0-45.703-46.504-45.703-79.16 17.422-62.832 45.703-79.16 63.125-16.328 91.406 0 45.703 46.504 45.703 79.16z"/>
 <path d="m690.94 600c0 32.656-17.422 62.832-45.703 79.16s-63.125 16.328-91.406 0-45.703-46.504-45.703-79.16 17.422-62.832 45.703-79.16 63.125-16.328 91.406 0 45.703 46.504 45.703 79.16z"/>
 <path d="m690.94 600c0 32.656-17.422 62.832-45.703 79.16s-63.125 16.328-91.406 0-45.703-46.504-45.703-79.16 17.422-62.832 45.703-79.16 63.125-16.328 91.406 0 45.703 46.504 45.703 79.16z"/>
 <path d="m690.94 600c0 32.656-17.422 62.832-45.703 79.16s-63.125 16.328-91.406 0-45.703-46.504-45.703-79.16 17.422-62.832 45.703-79.16 63.125-16.328 91.406 0 45.703 46.504 45.703 79.16z"/>
 <path d="m690.94 600c0 32.656-17.422 62.832-45.703 79.16s-63.125 16.328-91.406 0-45.703-46.504-45.703-79.16 17.422-62.832 45.703-79.16 63.125-16.328 91.406 0 45.703 46.504 45.703 79.16z"/>
 <path d="m690.94 600c0 32.656-17.422 62.832-45.703 79.16s-63.125 16.328-91.406 0-45.703-46.504-45.703-79.16 17.422-62.832 45.703-79.16 63.125-16.328 91.406 0 45.703 46.504 45.703 79.16z"/>
 <path d="m690.94 600c0 32.656-17.422 62.832-45.703 79.16s-63.125 16.328-91.406 0-45.703-46.504-45.703-79.16 17.422-62.832 45.703-79.16 63.125-16.328 91.406 0 45.703 46.504 45.703 79.16z"/>
 <path d="m690.94 600c0 32.656-17.422 62.832-45.703 79.16s-63.125 16.328-91.406 0-45.703-46.504-45.703-79.16 17.422-62.832 45.703-79.16 63.125-16.328 91.406 0 45.703 46.504 45.703 79.16z"/>
 <path d="m690.94 600c0 32.656-17.422 62.832-45.703 79.16s-63.125 16.328-91.406 0-45.703-46.504-45.703-79.16 17.422-62.832 45.703-79.16 63.125-16.328 91.406 0 45.703 46.504 45.703 79.16z"/>
 <path d="m690.94 600c0 32.656-17.422 62.832-45.703 79.16s-63.125 16.328-91.406 0-45.703-46.504-45.703-79.16 17.422-62.832 45.703-79.16 63.125-16.328 91.406 0 45.703 46.504 45.703 79.16z"/>
 <path d="m690.94 600c0 32.656-17.422 62.832-45.703 79.16s-63.125 16.328-91.406 0-45.703-46.504-45.703-79.16 17.422-62.832 45.703-79.16 63.125-16.328 91.406 0 45.703 46.504 45.703 79.16z"/>
 <path d="m690.94 600c0 32.656-17.422 62.832-45.703 79.16s-63.125 16.328-91.406 0-45.703-46.504-45.703-79.16 17.422-62.832 45.703-79.16 63.125-16.328 91.406 0 45.703 46.504 45.703 79.16z"/>
 <path d="m690.94 600c0 32.656-17.422 62.832-45.703 79.16s-63.125 16.328-91.406 0-45.703-46.504-45.703-79.16 17.422-62.832 45.703-79.16 63.125-16.328 91.406 0 45.703 46.504 45.703 79.16z"/>
 <path d="m690.94 600c0 32.656-17.422 62.832-45.703 79.16s-63.125 16.328-91.406 0-45.703-46.504-45.703-79.16 17.422-62.832 45.703-79.16 63.125-16.328 91.406 0 45.703 46.504 45.703 79.16z"/>
 <path d="m690.94 600c0 32.656-17.422 62.832-45.703 79.16s-63.125 16.328-91.406 0-45.703-46.504-45.703-79.16 17.422-62.832 45.703-79.16 63.125-16.328 91.406 0 45.703 46.504 45.703 79.16z"/>
 <path d="m690.94 600c0 32.656-17.422 62.832-45.703 79.16s-63.125 16.328-91.406 0-45.703-46.504-45.703-79.16 17.422-62.832 45.703-79.16 63.125-16.328 91.406 0 45.703 46.504 45.703 79.16z"/>
 <path d="m690.94 600c0 32.656-17.422 62.832-45.703 79.16s-63.125 16.328-91.406 0-45.703-46.504-45.703-79.16 17.422-62.832 45.703-79.16 63.125-16.328 91.406 0 45.703 46.504 45.703 79.16z"/>
 <path d="m690.94 600c0 32.656-17.422 62.832-45.703 79.16s-63.125 16.328-91.406 0-45.703-46.504-45.703-79.16 17.422-62.832 45.703-79.16 63.125-16.328 91.406 0 45.703 46.504 45.703 79.16z"/>
 <path d="m690.94 600c0 32.656-17.422 62.832-45.703 79.16s-63.125 16.328-91.406 0-45.703-46.504-45.703-79.16 17.422-62.832 45.703-79.16 63.125-16.328 91.406 0 45.703 46.504 45.703 79.16z"/>
 <path d="m690.94 600c0 32.656-17.422 62.832-45.703 79.16s-63.125 16.328-91.406 0-45.703-46.504-45.703-79.16 17.422-62.832 45.703-79.16 63.125-16.328 91.406 0 45.703 46.504 45.703 79.16z"/>
 <path d="m690.94 600c0 32.656-17.422 62.832-45.703 79.16s-63.125 16.328-91.406 0-45.703-46.504-45.703-79.16 17.422-62.832 45.703-79.16 63.125-16.328 91.406 0 45.703 46.504 45.703 79.16z"/>
 <path d="m690.94 600c0 32.656-17.422 62.832-45.703 79.16s-63.125 16.328-91.406 0-45.703-46.504-45.703-79.16 17.422-62.832 45.703-79.16 63.125-16.328 91.406 0 45.703 46.504 45.703 79.16z"/>
 <path d="m690.94 600c0 32.656-17.422 62.832-45.703 79.16s-63.125 16.328-91.406 0-45.703-46.504-45.703-79.16 17.422-62.832 45.703-79.16 63.125-16.328 91.406 0 45.703 46.504 45.703 79.16z"/>
 <path d="m690.94 600c0 32.656-17.422 62.832-45.703 79.16s-63.125 16.328-91.406 0-45.703-46.504-45.703-79.16 17.422-62.832 45.703-79.16 63.125-16.328 91.406 0 45.703 46.504 45.703 79.16z"/>
 <path d="m690.94 600c0 32.656-17.422 62.832-45.703 79.16s-63.125 16.328-91.406 0-45.703-46.504-45.703-79.16 17.422-62.832 45.703-79.16 63.125-16.328 91.406 0 45.703 46.504 45.703 79.16z"/>
 <path d="m690.94 600c0 32.656-17.422 62.832-45.703 79.16s-63.125 16.328-91.406 0-45.703-46.504-45.703-79.16 17.422-62.832 45.703-79.16 63.125-16.328 91.406 0 45.703 46.504 45.703 79.16z"/>
 <path d="m690.94 600c0 32.656-17.422 62.832-45.703 79.16s-63.125 16.328-91.406 0-45.703-46.504-45.703-79.16 17.422-62.832 45.703-79.16 63.125-16.328 91.406 0 45.703 46.504 45.703 79.16z"/>
 <path d="m690.94 600c0 32.656-17.422 62.832-45.703 79.16s-63.125 16.328-91.406 0-45.703-46.504-45.703-79.16 17.422-62.832 45.703-79.16 63.125-16.328 91.406 0 45.703 46.504 45.703 79.16z"/>
 <path d="m690.94 600c0 32.656-17.422 62.832-45.703 79.16s-63.125 16.328-91.406 0-45.703-46.504-45.703-79.16 17.422-62.832 45.703-79.16 63.125-16.328 91.406 0 45.703 46.504 45.703 79.16z"/>
 <path d="m690.94 600c0 32.656-17.422 62.832-45.703 79.16s-63.125 16.328-91.406 0-45.703-46.504-45.703-79.16 17.422-62.832 45.703-79.16 63.125-16.328 91.406 0 45.703 46.504 45.703 79.16z"/>
 <path d="m690.94 600c0 32.656-17.422 62.832-45.703 79.16s-63.125 16.328-91.406 0-45.703-46.504-45.703-79.16 17.422-62.832 45.703-79.16 63.125-16.328 91.406 0 45.703 46.504 45.703 79.16z"/>
 <path d="m690.94 600c0 32.656-17.422 62.832-45.703 79.16s-63.125 16.328-91.406 0-45.703-46.504-45.703-79.16 17.422-62.832 45.703-79.16 63.125-16.328 91.406 0 45.703 46.504 45.703 79.16z"/>
 <path d="m690.94 600c0 32.656-17.422 62.832-45.703 79.16s-63.125 16.328-91.406 0-45.703-46.504-45.703-79.16 17.422-62.832 45.703-79.16 63.125-16.328 91.406 0 45.703 46.504 45.703 79.16z"/>
 <path d="m690.94 600c0 32.656-17.422 62.832-45.703 79.16s-63.125 16.328-91.406 0-45.703-46.504-45.703-79.16 17.422-62.832 45.703-79.16 63.125-16.328 91.406 0 45.703 46.504 45.703 79.16z"/>
 <path d="m690.94 600c0 32.656-17.422 62.832-45.703 79.16s-63.125 16.328-91.406 0-45.703-46.504-45.703-79.16 17.422-62.832 45.703-79.16 63.125-16.328 91.406 0 45.703 46.504 45.703 79.16z"/>
 <path d="m690.94 600c0 32.656-17.422 62.832-45.703 79.16s-63.125 16.328-91.406 0-45.703-46.504-45.703-79.16 17.422-62.832 45.703-79.16 63.125-16.328 91.406 0 45.703 46.504 45.703 79.16z"/>
 <path d="m690.94 600c0 32.656-17.422 62.832-45.703 79.16s-63.125 16.328-91.406 0-45.703-46.504-45.703-79.16 17.422-62.832 45.703-79.16 63.125-16.328 91.406 0 45.703 46.504 45.703 79.16z"/>
 <path d="m690.94 600c0 32.656-17.422 62.832-45.703 79.16s-63.125 16.328-91.406 0-45.703-46.504-45.703-79.16 17.422-62.832 45.703-79.16 63.125-16.328 91.406 0 45.703 46.504 45.703 79.16z"/>
 <path d="m690.94 600c0 32.656-17.422 62.832-45.703 79.16s-63.125 16.328-91.406 0-45.703-46.504-45.703-79.16 17.422-62.832 45.703-79.16 63.125-16.328 91.406 0 45.703 46.504 45.703 79.16z"/>
 <path d="m690.94 600c0 32.656-17.422 62.832-45.703 79.16s-63.125 16.328-91.406 0-45.703-46.504-45.703-79.16 17.422-62.832 45.703-79.16 63.125-16.328 91.406 0 45.703 46.504 45.703 79.16z"/>
 <path d="m690.94 600c0 32.656-17.422 62.832-45.703 79.16s-63.125 16.328-91.406 0-45.703-46.504-45.703-79.16 17.422-62.832 45.703-79.16 63.125-16.328 91.406 0 45.703 46.504 45.703 79.16z"/>
 <path d="m690.94 600c0 32.656-17.422 62.832-45.703 79.16s-63.125 16.328-91.406 0-45.703-46.504-45.703-79.16 17.422-62.832 45.703-79.16 63.125-16.328 91.406 0 45.703 46.504 45.703 79.16z"/>
 <path d="m690.94 600c0 32.656-17.422 62.832-45.703 79.16s-63.125 16.328-91.406 0-45.703-46.504-45.703-79.16 17.422-62.832 45.703-79.16 63.125-16.328 91.406 0 45.703 46.504 45.703 79.16z"/>
 <path d="m690.94 600c0 32.656-17.422 62.832-45.703 79.16s-63.125 16.328-91.406 0-45.703-46.504-45.703-79.16 17.422-62.832 45.703-79.16 63.125-16.328 91.406 0 45.703 46.504 45.703 79.16z"/>
 <path d="m690.94 600c0 32.656-17.422 62.832-45.703 79.16s-63.125 16.328-91.406 0-45.703-46.504-45.703-79.16 17.422-62.832 45.703-79.16 63.125-16.328 91.406 0 45.703 46.504 45.703 79.16z"/>
 <path d="m690.94 600c0 32.656-17.422 62.832-45.703 79.16s-63.125 16.328-91.406 0-45.703-46.504-45.703-79.16 17.422-62.832 45.703-79.16 63.125-16.328 91.406 0 45.703 46.504 45.703 79.16z"/>
 <path d="m690.94 600c0 32.656-17.422 62.832-45.703 79.16s-63.125 16.328-91.406 0-45.703-46.504-45.703-79.16 17.422-62.832 45.703-79.16 63.125-16.328 91.406 0 45.703 46.504 45.703 79.16z"/>
 <path d="m690.94 600c0 32.656-17.422 62.832-45.703 79.16s-63.125 16.328-91.406 0-45.703-46.504-45.703-79.16 17.422-62.832 45.703-79.16 63.125-16.328 91.406 0 45.703 46.504 45.703 79.16z"/>
 <path d="m690.94 600c0 32.656-17.422 62.832-45.703 79.16s-63.125 16.328-91.406 0-45.703-46.504-45.703-79.16 17.422-62.832 45.703-79.16 63.125-16.328 91.406 0 45.703 46.504 45.703 79.16z"/>
 <path d="m690.94 600c0 32.656-17.422 62.832-45.703 79.16s-63.125 16.328-91.406 0-45.703-46.504-45.703-79.16 17.422-62.832 45.703-79.16 63.125-16.328 91.406 0 45.703 46.504 45.703 79.16z"/>
 <path d="m690.94 600c0 32.656-17.422 62.832-45.703 79.16s-63.125 16.328-91.406 0-45.703-46.504-45.703-79.16 17.422-62.832 45.703-79.16 63.125-16.328 91.406 0 45.703 46.504 45.703 79.16z"/>
 <path d="m690.94 600c0 32.656-17.422 62.832-45.703 79.16s-63.125 16.328-91.406 0-45.703-46.504-45.703-79.16 17.422-62.832 45.703-79.16 63.125-16.328 91.406 0 45.703 46.504 45.703 79.16z"/>
 <path d="m690.94 600c0 32.656-17.422 62.832-45.703 79.16s-63.125 16.328-91.406 0-45.703-46.504-45.703-79.16 17.422-62.832 45.703-79.16 63.125-16.328 91.406 0 45.703 46.504 45.703 79.16z"/>
 <path d="m690.94 600c0 32.656-17.422 62.832-45.703 79.16s-63.125 16.328-91.406 0-45.703-46.504-45.703-79.16 17.422-62.832 45.703-79.16 63.125-16.328 91.406 0 45.703 46.504 45.703 79.16z"/>
 <path d="m690.94 600c0 32.656-17.422 62.832-45.703 79.16s-63.125 16.328-91.406 0-45.703-46.504-45.703-79.16 17.422-62.832 45.703-79.16 63.125-16.328 91.406 0 45.703 46.504 45.703 79.16z"/>
 <path d="m690.94 600c0 32.656-17.422 62.832-45.703 79.16s-63.125 16.328-91.406 0-45.703-46.504-45.703-79.16 17.422-62.832 45.703-79.16 63.125-16.328 91.406 0 45.703 46.504 45.703 79.16z"/>
 <path d="m690.94 600c0 32.656-17.422 62.832-45.703 79.16s-63.125 16.328-91.406 0-45.703-46.504-45.703-79.16 17.422-62.832 45.703-79.16 63.125-16.328 91.406 0 45.703 46.504 45.703 79.16z"/>
 <path d="m690.94 600c0 32.656-17.422 62.832-45.703 79.16s-63.125 16.328-91.406 0-45.703-46.504-45.703-79.16 17.422-62.832 45.703-79.16 63.125-16.328 91.406 0 45.703 46.504 45.703 79.16z"/>
 <path d="m690.94 600c0 32.656-17.422 62.832-45.703 79.16s-63.125 16.328-91.406 0-45.703-46.504-45.703-79.16 17.422-62.832 45.703-79.16 63.125-16.328 91.406 0 45.703 46.504 45.703 79.16z"/>
 <path d="m690.94 600c0 32.656-17.422 62.832-45.703 79.16s-63.125 16.328-91.406 0-45.703-46.504-45.703-79.16 17.422-62.832 45.703-79.16 63.125-16.328 91.406 0 45.703 46.504 45.703 79.16z"/>
 <path d="m690.94 600c0 32.656-17.422 62.832-45.703 79.16s-63.125 16.328-91.406 0-45.703-46.504-45.703-79.16 17.422-62.832 45.703-79.16 63.125-16.328 91.406 0 45.703 46.504 45.703 79.16z"/>
 <path d="m690.94 600c0 32.656-17.422 62.832-45.703 79.16s-63.125 16.328-91.406 0-45.703-46.504-45.703-79.16 17.422-62.832 45.703-79.16 63.125-16.328 91.406 0 45.703 46.504 45.703 79.16z"/>
 <path d="m690.94 600c0 32.656-17.422 62.832-45.703 79.16s-63.125 16.328-91.406 0-45.703-46.504-45.703-79.16 17.422-62.832 45.703-79.16 63.125-16.328 91.406 0 45.703 46.504 45.703 79.16z"/>
 <path d="m690.94 600c0 32.656-17.422 62.832-45.703 79.16s-63.125 16.328-91.406 0-45.703-46.504-45.703-79.16 17.422-62.832 45.703-79.16 63.125-16.328 91.406 0 45.703 46.504 45.703 79.16z"/>
 <path d="m690.94 600c0 32.656-17.422 62.832-45.703 79.16s-63.125 16.328-91.406 0-45.703-46.504-45.703-79.16 17.422-62.832 45.703-79.16 63.125-16.328 91.406 0 45.703 46.504 45.703 79.16z"/>
 <path d="m690.94 600c0 32.656-17.422 62.832-45.703 79.16s-63.125 16.328-91.406 0-45.703-46.504-45.703-79.16 17.422-62.832 45.703-79.16 63.125-16.328 91.406 0 45.703 46.504 45.703 79.16z"/>
 <path d="m690.94 600c0 32.656-17.422 62.832-45.703 79.16s-63.125 16.328-91.406 0-45.703-46.504-45.703-79.16 17.422-62.832 45.703-79.16 63.125-16.328 91.406 0 45.703 46.504 45.703 79.16z"/>
 <path d="m690.94 600c0 32.656-17.422 62.832-45.703 79.16s-63.125 16.328-91.406 0-45.703-46.504-45.703-79.16 17.422-62.832 45.703-79.16 63.125-16.328 91.406 0 45.703 46.504 45.703 79.16z"/>
 <path d="m690.94 600c0 32.656-17.422 62.832-45.703 79.16s-63.125 16.328-91.406 0-45.703-46.504-45.703-79.16 17.422-62.832 45.703-79.16 63.125-16.328 91.406 0 45.703 46.504 45.703 79.16z"/>
 <path d="m690.94 600c0 32.656-17.422 62.832-45.703 79.16s-63.125 16.328-91.406 0-45.703-46.504-45.703-79.16 17.422-62.832 45.703-79.16 63.125-16.328 91.406 0 45.703 46.504 45.703 79.16z"/>
 <path d="m690.94 600c0 32.656-17.422 62.832-45.703 79.16s-63.125 16.328-91.406 0-45.703-46.504-45.703-79.16 17.422-62.832 45.703-79.16 63.125-16.328 91.406 0 45.703 46.504 45.703 79.16z"/>
 <path d="m690.94 600c0 32.656-17.422 62.832-45.703 79.16s-63.125 16.328-91.406 0-45.703-46.504-45.703-79.16 17.422-62.832 45.703-79.16 63.125-16.328 91.406 0 45.703 46.504 45.703 79.16z"/>
 <path d="m690.94 600c0 32.656-17.422 62.832-45.703 79.16s-63.125 16.328-91.406 0-45.703-46.504-45.703-79.16 17.422-62.832 45.703-79.16 63.125-16.328 91.406 0 45.703 46.504 45.703 79.16z"/>
 <path d="m690.94 600c0 32.656-17.422 62.832-45.703 79.16s-63.125 16.328-91.406 0-45.703-46.504-45.703-79.16 17.422-62.832 45.703-79.16 63.125-16.328 91.406 0 45.703 46.504 45.703 79.16z"/>
 <path d="m690.94 600c0 32.656-17.422 62.832-45.703 79.16s-63.125 16.328-91.406 0-45.703-46.504-45.703-79.16 17.422-62.832 45.703-79.16 63.125-16.328 91.406 0 45.703 46.504 45.703 79.16z"/>
 <path d="m690.94 600c0 32.656-17.422 62.832-45.703 79.16s-63.125 16.328-91.406 0-45.703-46.504-45.703-79.16 17.422-62.832 45.703-79.16 63.125-16.328 91.406 0 45.703 46.504 45.703 79.16z"/>
 <path d="m690.94 600c0 32.656-17.422 62.832-45.703 79.16s-63.125 16.328-91.406 0-45.703-46.504-45.703-79.16 17.422-62.832 45.703-79.16 63.125-16.328 91.406 0 45.703 46.504 45.703 79.16z"/>
 <path d="m690.94 600c0 32.656-17.422 62.832-45.703 79.16s-63.125 16.328-91.406 0-45.703-46.504-45.703-79.16 17.422-62.832 45.703-79.16 63.125-16.328 91.406 0 45.703 46.504 45.703 79.16z"/>
 <path d="m690.94 600c0 32.656-17.422 62.832-45.703 79.16s-63.125 16.328-91.406 0-45.703-46.504-45.703-79.16 17.422-62.832 45.703-79.16 63.125-16.328 91.406 0 45.703 46.504 45.703 79.16z"/>
 <path d="m690.94 600c0 32.656-17.422 62.832-45.703 79.16s-63.125 16.328-91.406 0-45.703-46.504-45.703-79.16 17.422-62.832 45.703-79.16 63.125-16.328 91.406 0 45.703 46.504 45.703 79.16z"/>
 <path d="m690.94 600c0 32.656-17.422 62.832-45.703 79.16s-63.125 16.328-91.406 0-45.703-46.504-45.703-79.16 17.422-62.832 45.703-79.16 63.125-16.328 91.406 0 45.703 46.504 45.703 79.16z"/>
 <path d="m690.94 600c0 32.656-17.422 62.832-45.703 79.16s-63.125 16.328-91.406 0-45.703-46.504-45.703-79.16 17.422-62.832 45.703-79.16 63.125-16.328 91.406 0 45.703 46.504 45.703 79.16z"/>
 <path d="m690.94 600c0 32.656-17.422 62.832-45.703 79.16s-63.125 16.328-91.406 0-45.703-46.504-45.703-79.16 17.422-62.832 45.703-79.16 63.125-16.328 91.406 0 45.703 46.504 45.703 79.16z"/>
 <path d="m690.94 600c0 32.656-17.422 62.832-45.703 79.16s-63.125 16.328-91.406 0-45.703-46.504-45.703-79.16 17.422-62.832 45.703-79.16 63.125-16.328 91.406 0 45.703 46.504 45.703 79.16z"/>
 <path d="m690.94 600c0 32.656-17.422 62.832-45.703 79.16s-63.125 16.328-91.406 0-45.703-46.504-45.703-79.16 17.422-62.832 45.703-79.16 63.125-16.328 91.406 0 45.703 46.504 45.703 79.16z"/>
 <path d="m690.94 600c0 32.656-17.422 62.832-45.703 79.16s-63.125 16.328-91.406 0-45.703-46.504-45.703-79.16 17.422-62.832 45.703-79.16 63.125-16.328 91.406 0 45.703 46.504 45.703 79.16z"/>
 <path d="m690.94 600c0 32.656-17.422 62.832-45.703 79.16s-63.125 16.328-91.406 0-45.703-46.504-45.703-79.16 17.422-62.832 45.703-79.16 63.125-16.328 91.406 0 45.703 46.504 45.703 79.16z"/>
 <path d="m690.94 600c0 32.656-17.422 62.832-45.703 79.16s-63.125 16.328-91.406 0-45.703-46.504-45.703-79.16 17.422-62.832 45.703-79.16 63.125-16.328 91.406 0 45.703 46.504 45.703 79.16z"/>
 <path d="m690.94 600c0 32.656-17.422 62.832-45.703 79.16s-63.125 16.328-91.406 0-45.703-46.504-45.703-79.16 17.422-62.832 45.703-79.16 63.125-16.328 91.406 0 45.703 46.504 45.703 79.16z"/>
 <path d="m690.94 600c0 32.656-17.422 62.832-45.703 79.16s-63.125 16.328-91.406 0-45.703-46.504-45.703-79.16 17.422-62.832 45.703-79.16 63.125-16.328 91.406 0 45.703 46.504 45.703 79.16z"/>
 <path d="m690.94 600c0 32.656-17.422 62.832-45.703 79.16s-63.125 16.328-91.406 0-45.703-46.504-45.703-79.16 17.422-62.832 45.703-79.16 63.125-16.328 91.406 0 45.703 46.504 45.703 79.16z"/>
 <path d="m690.94 600c0 32.656-17.422 62.832-45.703 79.16s-63.125 16.328-91.406 0-45.703-46.504-45.703-79.16 17.422-62.832 45.703-79.16 63.125-16.328 91.406 0 45.703 46.504 45.703 79.16z"/>
 <path d="m690.94 600c0 32.656-17.422 62.832-45.703 79.16s-63.125 16.328-91.406 0-45.703-46.504-45.703-79.16 17.422-62.832 45.703-79.16 63.125-16.328 91.406 0 45.703 46.504 45.703 79.16z"/>
 <path d="m690.94 600c0 32.656-17.422 62.832-45.703 79.16s-63.125 16.328-91.406 0-45.703-46.504-45.703-79.16 17.422-62.832 45.703-79.16 63.125-16.328 91.406 0 45.703 46.504 45.703 79.16z"/>
 <path d="m815.62 645.94-15 44.062c-2.5039 6.8711-7.9805 12.242-14.898 14.609-6.9219 2.3672-14.539 1.4766-20.727-2.4219l-38.438-26.25c-5.4531-3.7383-9.5703-9.1172-11.762-15.352-2.1914-6.2383-2.3398-13.008-0.42578-19.336l2.8125-7.5c2.0312-6.5195 6.1758-12.176 11.777-16.082 5.6016-3.9023 12.34-5.832 19.16-5.4805l45 1.875c7.5664 0.47266 14.512 4.3516 18.887 10.547 4.3711 6.1953 5.7031 14.039 3.6133 21.328z"/>
 <path d="m746.25 763.12-36.562 27.188c-6.1602 4.1602-13.871 5.3086-20.973 3.1211-7.1055-2.1836-12.836-7.4688-15.59-14.371l-15.938-43.125c-2.2266-6.2109-2.332-12.988-0.29688-19.266s6.0977-11.699 11.547-15.422l5.625-4.6875c5.5742-3.7617 12.18-5.6914 18.898-5.5234 6.7227 0.16797 13.223 2.4258 18.602 6.4609l36.562 28.125c5.7266 4.6953 8.8906 11.828 8.5195 19.223-0.36719 7.3984-4.2266 14.18-10.395 18.277z"/>
 <path d="m621.56 819.38h-45c-7.5352-0.23047-14.562-3.8594-19.113-9.8672-4.5508-6.0078-6.1406-13.754-4.3242-21.07l12.188-44.062c2.0078-6.4258 5.9844-12.055 11.367-16.094 5.3867-4.0391 11.902-6.2773 18.633-6.4062h7.5c6.7305 0.12891 13.246 2.3672 18.633 6.4062 5.3828 4.0391 9.3594 9.668 11.367 16.094l12.188 44.062c2.1758 7.3438 0.73047 15.289-3.8945 21.395-4.6289 6.1094-11.883 9.6484-19.543 9.543z"/>
 <path d="m540.94 735.94-15.938 43.125c-2.332 7.0195-7.8867 12.492-14.941 14.719-7.0508 2.2266-14.742 0.9375-20.684-3.4688l-37.5-27.188c-6.1641-4.2539-9.8438-11.262-9.8438-18.75s3.6797-14.496 9.8438-18.75l34.688-28.125c5.3828-4.0195 11.883-6.2695 18.602-6.4375 6.7148-0.16797 13.32 1.7539 18.898 5.5l6.5625 4.6875c5.3359 3.8086 9.2461 9.2891 11.117 15.57 1.8672 6.2852 1.5859 13.012-0.80469 19.117z"/>
 <path d="m483.75 641.25c2.1367 6.3125 2.0977 13.16-0.10938 19.445-2.2109 6.2891-6.4609 11.656-12.078 15.242l-38.438 26.25c-6.0391 3.9062-13.547 4.7969-20.332 2.4102-6.7852-2.3828-12.086-7.7734-14.355-14.598l-15-44.062c-2.293-7.1523-1.1719-14.957 3.0352-21.18 4.207-6.2188 11.035-10.16 18.527-10.695l46.875-1.875c6.6094 0.074219 13.039 2.1836 18.406 6.043s9.418 9.2773 11.594 15.52z"/>
 <path d="m483.75 557.81-1.875 7.5c-2.1758 6.2422-6.2266 11.66-11.594 15.52s-11.797 5.9688-18.406 6.043l-46.875-1.875c-7.4922-0.53516-14.32-4.4766-18.527-10.695-4.207-6.2227-5.3281-14.027-3.0352-21.18l15-44.062c2.2695-6.8242 7.5703-12.215 14.355-14.598 6.7852-2.3867 14.293-1.4961 20.332 2.4102l38.438 26.25c5.6172 3.5859 9.8672 8.9531 12.078 15.242 2.207 6.2852 2.2461 13.133 0.10938 19.445z"/>
 <path d="m530.62 497.81-6.5625 4.6875c-5.5781 3.7461-12.184 5.668-18.898 5.5-6.7188-0.16797-13.219-2.418-18.602-6.4375l-34.688-28.125c-6.1641-4.2539-9.8438-11.262-9.8438-18.75s3.6797-14.496 9.8438-18.75l37.5-27.188c5.8359-4.3594 13.379-5.7305 20.379-3.707 6.9961 2.0273 12.641 7.2148 15.246 14.02l15.938 44.062c2.3398 6.1094 2.5977 12.824 0.73047 19.094-1.8633 6.2734-5.7461 11.754-11.043 15.594z"/>
 <path d="m645 410.62-12.188 44.062c-2.0078 6.4258-5.9844 12.055-11.367 16.094-5.3867 4.0391-11.902 6.2773-18.633 6.4062h-7.5c-6.7305-0.12891-13.246-2.3672-18.633-6.4062-5.3828-4.0391-9.3594-9.668-11.367-16.094l-12.188-44.062c-1.8164-7.3164-0.22656-15.062 4.3242-21.07 4.5508-6.0078 11.578-9.6367 19.113-9.8672h45c7.6602-0.10547 14.914 3.4336 19.543 9.543 4.625 6.1055 6.0703 14.051 3.8945 21.395z"/>
 <path d="m793.12 585-45 1.875c-6.8203 0.35156-13.559-1.5781-19.16-5.4805-5.6016-3.9062-9.7461-9.5625-11.777-16.082l-2.8125-7.5c-1.9141-6.3281-1.7656-13.098 0.42578-19.336 2.1914-6.2344 6.3086-11.613 11.762-15.352l38.438-26.25c6.1875-3.8984 13.805-4.7891 20.727-2.4219 6.918 2.3672 12.395 7.7383 14.898 14.609l15 44.062c2.0898 7.2891 0.75781 15.133-3.6133 21.328-4.375 6.1953-11.32 10.074-18.887 10.547z"/>
 <path d="m748.12 473.44-36.562 28.125c-5.3789 4.0352-11.879 6.293-18.602 6.4609-6.7188 0.16797-13.324-1.7617-18.898-5.5234l-5.625-4.6875c-5.4492-3.7227-9.5117-9.1445-11.547-15.422s-1.9297-13.055 0.29688-19.266l15.938-44.062c2.8906-6.793 8.707-11.91 15.812-13.914 7.1055-2.0039 14.734-0.67969 20.75 3.6016l36.562 27.188c6.168 4.0977 10.027 10.879 10.395 18.277 0.37109 7.3945-2.793 14.527-8.5195 19.223z"/>
</svg>
